<mxfile host="Electron" modified="2024-07-31T15:46:40.028Z" agent="Mozilla/5.0 (Windows NT 10.0; Win64; x64) AppleWebKit/537.36 (KHTML, like Gecko) draw.io/22.0.3 Chrome/114.0.5735.289 Electron/25.8.4 Safari/537.36" etag="7PygRfZx3oiAxXCFBHtZ" version="22.0.3" type="device">
  <diagram name="Page-1" id="296OA8olFVGWfcnmO7nl">
    <mxGraphModel dx="867" dy="481" grid="1" gridSize="10" guides="1" tooltips="1" connect="1" arrows="1" fold="1" page="1" pageScale="1" pageWidth="700" pageHeight="260" math="0" shadow="0">
      <root>
        <mxCell id="0" />
        <mxCell id="1" parent="0" />
        <mxCell id="nBNxJdVC5k_DGyjdFlCN-1" value="" style="shape=image;imageAspect=0;aspect=fixed;verticalLabelPosition=bottom;verticalAlign=top;image=data:image/svg+xml,PHN2ZyB4bWxuczp4bGluaz0iaHR0cDovL3d3dy53My5vcmcvMTk5OS94bGluayIgeG1sbnM9Imh0dHA6Ly93d3cudzMub3JnLzIwMDAvc3ZnIiB4bWw6c3BhY2U9InByZXNlcnZlIiBzdHlsZT0iZW5hYmxlLWJhY2tncm91bmQ6bmV3IDAgMCA1MDAuOCAzOTA7IiB2aWV3Qm94PSIwIDAgNTAwLjggMzkwIiB5PSIwcHgiIHg9IjBweCIgaWQ9IkxheWVyXzEiIHZlcnNpb249IjEuMSI+JiN4YTs8c3R5bGUgdHlwZT0idGV4dC9jc3MiPiYjeGE7CS5zdDB7ZmlsbDojQkVCRUJFO30mI3hhOzwvc3R5bGU+JiN4YTs8cGF0aCBkPSJNMTMxLjcsMTM4LjFsMS4yLTAuMmMtMi45LTEuOC0xMS4yLTIuMi0xNC4zLTAuN2wxLjksMS40Yy0xLjEsMS4yLTIuMSwyLjQtMy4zLDMuNWMtMC45LDAuNy0xLjIsMi0wLjYsMy4xJiMxMDsmIzk7YzAuNiwyLjEsMS45LDMuOSwzLjcsNS4xYzAuOCwwLjYsMS41LDEuMiwyLjIsMS45bC0xMC4zLDEuOGMwLjItMS4zLTAuMS0yLjksMC41LTQuMWMxLjktMy40LTAuMi01LjYtMi4yLTcuNmMtMi40LTIuNi01LTUtNy42LTcuNSYjMTA7JiM5O2MtMC41LTAuNS0wLjctMS4xLTAuOC0xLjdsNS42LDEuN2MtMC4zLTEuNy0wLjUtMy4yLTAuOC00LjdjLTAuOC00LjYtMC43LTkuMiwwLjQtMTMuN2MwLjgtMy4xLDEuOC02LjEsMi44LTkmIzEwOyYjOTtjMS4xLTIuOSwzLjItNS4zLDYtNi43Yy0wLjcsMy4zLTEuNSw2LjYtMiw5LjlzLTEuNCw2LjUtMC41LDkuN2MxLjUtMi40LDIuOC00LjgsNC41LTdjMS43LTIuMiwzLjctNC4yLDUuOS02JiMxMDsmIzk7Yy0xLjMsMi44LTMuNiw1LjEtMi45LDguOGMxLjQtMSwyLjYtMS45LDMuOC0yLjhjNS41LTQuMSwxMi4zLTUuOCwxOS01YzMuNiwwLjMsNy4yLDAuNCwxMC44LDAuMmMxLjQtMC4yLDIuNy0wLjUsNC0wLjkmIzEwOyYjOTtjLTEuMSwyLTMsMy41LTUuMiw0LjFjLTQuNiwxLjYtOS4zLDIuOC0xNCw0LjNjLTEuOSwwLjctMy42LDEuOC01LjEsMy4yYzEzLjYtMS42LDIwLjksNi4xLDI2LjEsMTcuNmMtMS42LTAuMy0zLjEtMC42LTQuNy0xLjEmIzEwOyYjOTtjLTYtMi4xLTExLjktNC43LTE4LjMtNS42Yy00LjctMC43LTkuNC0wLjItMTMuOCwxLjRjLTAuNCwwLjItMC43LDAuNC0xLDAuN2MwLjYsMC4zLDEuMywwLjUsMiwwLjdjMy42LDAuMyw3LDEuOSw5LjcsNC40JiMxMDsmIzk7YzAuNywwLjUsMS40LDAuOSwyLjIsMS4zTDEzMS43LDEzOC4xeiIgY2xhc3M9InN0MCIvPiYjeGE7PHBhdGggZD0iTTQ3My44LDI4MS4yYzAtMi40LDAuMi00LjgsMC4xLTcuMWMtMC4yLTQtMC42LTgsMS41LTExLjdjMC42LTEuMSwxLjQtMi4xLDIuMi0zLjNjMS4yLDEuMywyLDAuOSwzLDAmIzEwOyYjOTtjMS4yLTEsMi41LTEuOSwzLjktMi43YzIuNy0wLjgsNC4yLTAuNiw2LjMsMS40Yy0yLjEtMC4xLTMuNCwyLjMtNS41LDAuNmMtMC4yLTAuMi0wLjgtMC4xLTEuMSwwYy0zLjcsMS41LTYuNSw0LjYtNy42LDguNSYjMTA7JiM5O2MtMC4xLDAuNS0wLjEsMSwwLDEuNWwwLjYsMC4xYzAuMy0wLjUsMC42LTEuMSwwLjktMS43YzAuOC0yLjQsMi4zLTQuNCw0LjMtNS45YzAuNy0wLjYsMS40LTEuMSwyLjMsMGMwLjIsMC4zLDEuMSwwLjIsMS43LDAmIzEwOyYjOTtjMi42LTAuNyw1LjEtMS42LDcuNi0yLjJjMi4xLTAuNSwyLjgsMC4xLDIuOCwyLjNjMCwwLjcsMCwxLjQtMC4xLDIuMWMtMC4yLDMuNy0wLjMsMy42LTMuOSwzLjdjLTIuMSwwLjItNC4yLDAuNS02LjMsMSYjMTA7JiM5O2MtMC42LTIuMS0xLjUtMi41LTMuMy0wLjljLTAuOSwxLTEuNywyLjEtMi4yLDMuNGMtMC45LDEuNS0xLjYsMy4xLTIuNCw0LjdjLTAuMiwwLjUtMC40LDEuMS0wLjUsMS42bDAuNSwwLjNsNS4xLTguNSYjMTA7JiM5O2MwLjMsMSwwLjUsMS42LDAuNywyLjNjMC43LTAuMSwxLjMtMC4zLDEuOS0wLjVjMi43LTEuMyw1LjgtMS42LDguNy0xYzQuMiwwLjcsNS44LDQuNywzLDhjLTIsMi4zLTQuNiw0LjItNi44LDYuNCYjMTA7JiM5O2MtMS44LDEuNi0zLjQsMy41LTQuOCw1LjVjLTIuNiw0LTQuNyw4LjMtNy4yLDEyLjNjLTIuMiwzLjQtNC42LDYuNi03LDkuOWMtMS43LDIuMy02LDMtOC45LDEuMmMtNi45LTQuMy0xMy45LTguNS0yMC42LTEzLjEmIzEwOyYjOTtjLTkuNy02LjgtMTkuMy0xMy42LTI5LjgtMTkuMmMtMS4xLTAuNi0yLjMtMS40LTMuMSwwLjNjLTAuMi0wLjEtMC40LDAtMC41LTAuMWMtMy4zLTQuMy04LTYuMy0xMi45LTguNCYjMTA7JiM5O2MtOC4xLTMuMi0xNS42LTcuNS0yMi40LTEyLjljLTcuNS02LjEtMTMuOC0xMy4xLTE3LTIyLjhjLTIuNy04LjEtNi42LTE1LjctMTEuNi0yMi42Yy0wLjktMS4yLTItMi4zLTMtMy40JiMxMDsmIzk7Yy0wLjQtMC42LTAuOC0xLjItMS4yLTEuOGMxLjUtMC40LDMtMC43LDQuNS0wLjljMC43LDAsMS4zLDAuMiwxLjgsMC43YzMsNC4yLDYuMyw4LjMsOC45LDEyLjdjNC42LDcuNCw5LjcsMTQuNSwxNS4yLDIxLjImIzEwOyYjOTtjNS44LDcuMywxMi42LDEzLjUsMTkuNywxOS41YzIuOCwyLjQsNi40LDQsOS44LDUuN3M3LjEsMy4xLDEwLjgsNC43YzAuMS0wLjMsMC4xLTAuMSwwLTAuMWMtMC41LDAuNS0xLjEsMC45LTEuNiwxLjQmIzEwOyYjOTtjMC43LDAuNCwxLjQsMC42LDIuMSwwLjljMiwwLjQsNC4xLDAuNyw2LjEsMWMtMC41LDAuNy0xLjUsMS41LTEuNCwyYzAuMywxLjEsMSwyLDEuOSwyLjdjNi4xLDQuMiwxMi4zLDguMywxOC42LDEyLjQmIzEwOyYjOTtjNS4yLDMuNSwxMSw2LjEsMTcuMSw3LjZjMy40LDAuOCw2LjksMS4xLDkuOS0wLjljMi4xLTEuNSwzLjktMy40LDUuMy01LjVDNDcyLjEsMjg5LjcsNDczLjUsMjg1LjUsNDczLjgsMjgxLjJ6IiBjbGFzcz0ic3QwIi8+JiN4YTs8cGF0aCBkPSJNMjkzLjQsMjAwLjVjMiw2LjgsNi45LDExLjQsMTIuNCwxNS40YzIuMywxLjcsNS4yLDEsNy4yLTAuOWM0LjctNC4zLDkuMS05LDEwLjYtMTUuNmMwLjQtMS41LDAuNi0zLjEsMC42LTQuNyYjMTA7JiM5O2MwLjItNC4zLDMuMS02LjIsNi42LTcuMWMyLjktMC42LDUuOS0wLjksOC45LTAuOWMwLjgsMCwyLjIsMC45LDIuNCwxLjVjMC4zLDEuNC0xLjEsMS42LTIuMywxLjljLTIuNiwwLjUtNS4xLDEuMi03LjcsMS45JiMxMDsmIzk7Yy0zLjUsMS4yLTUuNiw1LjgtNiw5LjFjLTAuMSwxLjEsMC40LDEuMywxLjQsMS4yYzEuOC0wLjMsMy41LTAuNSw1LjMtMC42YzEuMi0wLjEsMi40LDAsMy42LDAuMWMyLjcsMC40LDUuNSwwLjgsOC4yLDEuMyYjMTA7JiM5O2MwLjYsMC4yLDEuMiwwLjUsMS43LDAuOWMtMC41LDAuNS0xLDEuMy0xLjUsMS40Yy0yLjQsMC4zLTQuOCwwLjQtNy4yLDAuNGMtMS4zLDAuMS0yLjUsMC0zLjgtMC4zYy0zLjctMS02LjQsMC44LTksMi45JiMxMDsmIzk7Yy0wLjQsMC40LTAuNiwwLjktMC42LDEuNGMwLDAuMiwwLjgsMC41LDEuMiwwLjZjMywwLjcsNi4xLDEuMiw5LjEsMS45YzIuMiwwLjUsNCwyLjIsNC41LDQuNGMtMi41LDAuMy01LjEsMC4xLTcuNS0wLjYmIzEwOyYjOTtjLTEtMC4yLTEuOS0wLjYtMi44LTEuMWMtMi44LTEuNy01LjMtMS4xLTcuNiwwLjljLTAuOSwwLjgtMiwxLjMtMi45LDIuMWMtMy42LDMuMi03LjUsMi42LTExLjYsMS40Yy01LjMtMS41LTktNS4zLTEzLTguNiYjMTA7JiM5O2MtMi4zLTEuOS00LjQtMy44LTYuNi01LjdjLTAuOC0wLjYtMS41LTEuMi0yLjIsMC4zbC0xLjctNC4zbC0yLDMuMWMtMS4xLTIuOSwxLjgtNS45LTAuOS04LjZjMS44LTEuMiwzLjctMi42LDUuNy0zLjgmIzEwOyYjOTtjNS42LTMuNSw5LjktOC40LDE0LjEtMTMuNGMzLjEtMy44LDYtNy42LDcuNi0xMi4zYzAuOC0yLjMsMS4zLTQuOSwzLjYtNi42YzEuNy0xLjMsMy0yLjYsNS41LTEuOWMyLjcsMC44LDQuOS0wLjUsNi41LTMuMSYjMTA7JiM5O2MxLjUsMy4xLDMuMiw1LjYsMi40LDkuMmMtMC42LDMuMy0wLjgsNi43LTAuNSwxMGMwLjEsMS45LDEsMy43LDEuNyw1LjVjMC4yLDAuNSwwLjgsMC44LDEuMywxLjJjMC4zLTAuNSwwLjYtMSwwLjktMS42JiMxMDsmIzk7YzAuMi0wLjUsMC4zLTEsMC40LTEuNWMxLjIsMi41LDIuMyw0LjgsMy41LDcuMmMtMy42LDAuNi02LjgsMi41LTkuMSw1LjRjLTAuMy0xLTAuNS0xLjgtMC44LTMuMWMtMC43LDEuMS0xLDEuNy0xLjQsMi4zbC0wLjUsMC4xJiMxMDsmIzk7Yy0wLjMtMS40LTAuNi0yLjgtMC44LTQuM3MtMC40LTIuOC0wLjYtNC4ybC0wLjctMC4xbC0xLjYsMy4yYy0wLjYtNC4yLTAuNi04LjMsMS42LTEyLjRjLTguMSw0LjEtMTUuNiw4LjMtMjAuNiwxNS44JiMxMDsmIzk7Yy0xLjYsMi40LTMuMSw0LjgtNC42LDcuMWMtMC42LDIuNi0yLjQsMC40LTMuNSwwLjdMMjkzLjQsMjAwLjV6IiBjbGFzcz0ic3QwIi8+JiN4YTs8cGF0aCBkPSJNMzE5LjQsMjU2LjZjNy44LTcuOSwxNy42LTEwLjUsMjcuOS0xMi4ybC0wLjItMC45bC01LjktMC42di0wLjRjMC41LTAuMSwxLTAuMiwxLjYtMC4zYzQtMC4zLDgtMC42LDExLjktMC44JiMxMDsmIzk7YzAuNSwwLDEuMSwwLjIsMS41LDAuNmMxLjgsMi44LDMuNiw1LjcsNS4zLDguNWMwLjEsMC4xLDAsMC40LDAsMC40bC0zLjEsMS4xYy0wLjktMS4xLTEuNi0wLjctMi40LDAuN2MtMS43LDMuMy0zLjQsNi42LTUuMiw5LjgmIzEwOyYjOTtjLTEuMywyLjItMi43LDQuMy00LjMsNi4zYy0yLjMsMy00LjYsNi03LDljLTAuMiwwLjMtMC41LDAuNS0wLjgsMC43bC0wLjUtMC4yYzAuOS0yLjMsMS43LTQuNiwyLjYtNi45YzAuMi0wLjQsMC42LTAuNywwLjgtMS4xJiMxMDsmIzk7YzAuMS0wLjUsMC4xLTAuOSwwLjEtMS40Yy0wLjQsMC4xLTEsMC4xLTEuMiwwLjRjLTIsMi4yLTQsNC40LTUuOCw2LjdjLTIuNSwzLjUtNS41LDYuNi04LjksOS4zYy0wLjUsMC4zLTAuOSwwLjYtMS40LDAuOCYjMTA7JiM5O2MwLTAuNS0wLjEtMC44LDAtMWMxLjktNC4yLDIuMS04LjgsMy0xMy4zczEuNC04LjgsNC41LTEyLjNjMC45LTEsMS40LTIuMi0wLjQtM2w0LjItMy42bC0wLjMtMC44Yy0xLjIsMC4xLTIuMywwLjMtMy40LDAuNiYjMTA7JiM5O2MtMy43LDEuMi03LjMsMi41LTExLDMuN0MzMjAuNSwyNTYuNSwzMjAsMjU2LjYsMzE5LjQsMjU2LjZ6IiBjbGFzcz0ic3QwIi8+JiN4YTs8cGF0aCBkPSJNMzk3LjcsMTY3LjNjNC4zLTEuOSw4LjctMy43LDEyLjgtNS45YzEuMS0wLjYsMS42LTIuNCwyLjQtMy42YzEuMy0zLjQsMC42LTYuOC0wLjktOS45JiMxMDsmIzk7Yy0xLjEtMi4zLTAuNi00LDAuOC01LjljMS45LTIuNiwzLjYtNS40LDUuNi04LjZjMC41LDAuOSwwLjgsMS44LDEuMSwyLjdjMC40LDIuNS0wLjMsNS0yLDYuOWMtMC4zLDAuNC0wLjcsMC44LTEsMS4xJiMxMDsmIzk7Yy0yLDIuMy0yLDIuMywwLDQuNmMyLjgsMy4xLDIuOSw1LjEsMC42LDguNmMtMC4zLDAuNS0wLjUsMS0wLjgsMS41YzEuOCwwLjEsMy40LTEsMy45LTIuNmMxLjEtMy4zLTAuMS02LTIuNC04LjMmIzEwOyYjOTtjLTEuMi0xLjItMS40LTItMC4xLTMuMmMwLjktMC44LDEuNi0xLjgsMi4xLTIuOWMwLjUtMS40LDEuMy0xLjQsMi42LTEuNWMzLjktMC4xLDcuOC0wLjUsMTEuNy0wLjhjMC43LTAuMSwxLjUtMC4xLDIuMi0wLjImIzEwOyYjOTtjLTAuMSwyLjQtMS45LDQuNC00LjMsNC42Yy0yLjMsMC00LjYtMC4yLTYuOS0wLjVjLTEuOC0wLjMtMy4xLDAuMS0zLjIsMS45YzAsMiwwLjMsNC4xLDAuOCw2LjFjMC4yLDEsMC45LDIsMS4xLDMmIzEwOyYjOTtjMC41LDIuMiwwLjEsNC4yLTIsNS4yYy00LjQsMi4yLTguOCw0LjUtMTMuNCw2LjJjLTUuNSwyLjEtMTAuOCw0LjQtMTUuNSw3LjhjLTAuNCwwLjMtMS4xLDAuOC0xLjEsMS4yYzAuMSwxLjYtMS4yLDEuNy0xLjksMi41JiMxMDsmIzk7Yy0xLjksMi4xLTMuMSwwLjUtNC43LTAuMWMtMC4yLTAuMS0wLjMtMC4yLTAuNS0wLjNjLTAuMywwLTAuNSwwLTAuOCwwbDEuNyw0bC01LjEtMi41Yy00LjctMS45LTkuNC0zLjgtMTQuMS01LjUmIzEwOyYjOTtjLTIuNy0xLTUuNi0xLjUtOC4zLTIuNGMtMC44LTAuMy0xLjUtMC45LTItMS43Yy0xLjQtMi0yLjctNC4xLTQtNi4yYy0wLjQtMC42LTAuNy0xLjEtMS4yLTEuOGMwLjMtMC4xLDAuNS0wLjEsMC44LTAuMSYjMTA7JiM5O2M3LDIuNSwxNCw1LDIxLDcuNmM0LjMsMS43LDguMyw0LjEsMTMuMiwzLjNDMzkwLjIsMTcxLjIsMzk0LjEsMTY5LjYsMzk3LjcsMTY3LjN6IiBjbGFzcz0ic3QwIi8+JiN4YTs8cGF0aCBkPSJNMzMyLjksMTA2LjRjMC0xLDAtMS45LDAuMS0yLjljMC41LTMuOCwxLjEtNy42LDEuNy0xMS40YzAuMS0wLjgsMC4xLTEuNiwwLjEtMi40YzAuNCwwLjIsMC41LDAuMiwwLjYsMC4zJiMxMDsmIzk7bDEuMiwxLjZjMC40LTAuNywwLjctMS41LDAuOC0yLjNjLTAuMi00LTAuNS03LjktMC44LTExLjljMi4yLDAuMSwyLjUtMC4yLDIuNC0yLjdjLTAuNC05LjQtMC45LTE4LjctMS40LTI4LjFjMC0wLjQsMC4xLTAuOCwwLjQtMSYjMTA7JiM5O2MwLjQsMS41LDAuOSwzLDEuMyw0LjVjMi42LDksMy44LDE4LjQsMy42LDI3LjhjMC4xLDEuNCwwLjIsMi43LDAuNSw0LjFsMi40LTEuNmwwLjQsMC4zYy02LDcuNy0xMC43LDE2LjEtMTIuNiwyNS44TDMzMi45LDEwNi40eiIgY2xhc3M9InN0MCIvPiYjeGE7PHBhdGggZD0iTTMyMC40LDkzLjZjLTIuMS00LjUtNi4zLTYuNS0xMC42LTguM2MwLjEtMC4yLDAuMi0wLjUsMC40LTAuN2MwLjQtMC43LDAuOS0xLjMsMS4zLTEuOSYjMTA7JiM5O2MtMC44LTAuMy0xLjYtMC43LTIuNS0xYy0yLjItMC44LTQuNS0xLjUtNi43LTIuM2wwLjEtMC43YzAuNiwwLDEuMiwwLDEuOSwwYzAuOC0wLjEsMS41LTAuMywyLjItMC40Yy0wLjItMC43LTAuNi0xLjMtMS0xLjgmIzEwOyYjOTtjLTMuOC0zLjYtNy43LTcuMS0xMS41LTEwLjZjMC4zLTAuMSwwLjYtMC4xLDAuOSwwYzIuOSwxLjEsNS44LDIuMSw4LjYsMy40YzEuNSwwLjcsMi4zLDAuNiwyLjktMWMwLjEtMC4yLDAuMy0wLjQsMC43LTAuOCYjMTA7JiM5O2MxLDEuMiwxLjksMi40LDIuNywzLjdjMS4yLDIuMiwxLjYsMi4zLDMuNSwwLjljMC44LDIuNCwxLjUsNC44LDIuNCw3LjFjMS42LDQuMywzLjMsOC42LDUsMTIuOWMwLjIsMC40LDAuNCwwLjcsMC42LDFMMzIwLjQsOTMuNnoiIGNsYXNzPSJzdDAiLz4mI3hhOzxwYXRoIGQ9Ik0zMzIuNywxMTkuNmMwLjYsMS41LDEuMiwzLDEuOCw0LjVjMCwwLjQtMC4yLDAuOC0wLjYsMWMtMy4xLDAuNi02LjIsMS4yLTkuMywxLjdjMCwwLTAuMS0wLjEtMC4zLTAuM2wzLjMtNCYjMTA7JiM5O2MwLjEsMSwwLjIsMS42LDAuNCwyLjZDMzMwLjksMTI0LjQsMzMwLjIsMTIwLjksMzMyLjcsMTE5LjZ6IiBjbGFzcz0ic3QwIi8+JiN4YTs8cGF0aCBkPSJNODguNiwyNzMuOGMtMC4zLTIuOC0wLjYtNS41LTAuOS04LjFjLTAuNy03LjYtMy4zLTE0LjctNS41LTIxLjljLTAuNC0xLjYtMC42LTMuMy0wLjUtNSYjMTA7JiM5O2MwLjEtMS41LDEtMS45LDIuNC0xLjJjMC4yLDAuMSwwLjQsMC4zLDAuNywwLjRjMy4xLDEsMy4xLDMuMiwzLDZjLTAuMSw0LjEsMC4yLDguMSwwLjcsMTIuMWMwLjUsNSwxLjIsOS45LDIuMSwxNC45JiMxMDsmIzk7QzkxLDI3Mi44LDkwLjIsMjczLjQsODguNiwyNzMuOHoiIGNsYXNzPSJzdDAiLz4mI3hhOzxwYXRoIGQ9Ik0xMTUuOSwyMjAuNWMwLjEsMCwwLjMsMCwwLjQsMGwzLjQsMC43Yy0wLjQsMS40LTAuNCwzLjEtMS4yLDQuMmMtMi4xLDMtNS43LDQuNy05LjMsNC41JiMxMDsmIzk7Yy0yLjMsMC00LjMtMS40LTUuMi0zLjVjLTEtMi40LTAuMS00LjUsMi41LTQuOUMxMDkuNiwyMjAuOSwxMTIuOCwyMjAuOCwxMTUuOSwyMjAuNUwxMTUuOSwyMjAuNXoiIGNsYXNzPSJzdDAiLz4mI3hhOzxwYXRoIGQ9Ik03Ny41LDIyMWMxLjMsMCwyLjYsMC4xLDMuOSwwLjNjNS43LDEuMSwxMS4zLDIuNiwxNywzLjVjMi43LDAuNCw0LjUsMS4zLDUuMiw0LjFjLTkuNCwwLjEtMTcuOS0zLjItMjYuMi03LjImIzEwOyYjOTtMNzcuNSwyMjF6IiBjbGFzcz0ic3QwIi8+JiN4YTs8cGF0aCBkPSJNODkuMywyNDguMWMtMC4xLTEuNC0wLjEtMi44LDAtNC4yYzAuMi0wLjgsMC42LTEuNSwxLjEtMi4xYzAuNC0wLjMsMC44LTAuNCwxLjMtMC4zYzAuMywwLjMsMC41LDAuOCwwLjQsMS4zJiMxMDsmIzk7Yy0xLjgsOS4yLTAuMiwxOC4yLDEuMywyNy4zYzAsMC43LTAuMSwxLjMtMC4zLDEuOWMtMC40LTAuNS0xLjEtMS0xLjItMS42Yy0xLjEtNy40LTIuMS0xNC45LTMuMS0yMi4zTDg5LjMsMjQ4LjF6IiBjbGFzcz0ic3QwIi8+JiN4YTs8cGF0aCBkPSJNNDE0LDEzOGMtMS41LDIuMS0yLjcsMy45LTQuMSw1LjhjLTIuOC00LjMtNS04LjYtNS4zLTEzLjZjLTAuMS0xLjMsMS4yLTMsMi4zLTQuMWMyLjEtMiw0LjMtMy45LDYuNi01LjYmIzEwOyYjOTtjMS0wLjcsMi40LTAuOSwzLjYtMS4zbDAuNSwwLjZjLTAuNiwxLjItMS4yLDIuMy0xLjksMy40Yy0wLjgsMS0xLjcsMS45LTIuNiwyLjhjLTIuOCwyLjctMy44LDYuNy0yLjgsMTAuNSYjMTA7JiM5O0M0MTAuOSwxMzguOCw0MTEuMiwxMzksNDE0LDEzOHoiIGNsYXNzPSJzdDAiLz4mI3hhOzxwYXRoIGQ9Ik00MzAuMSwxMjIuN2MtMC40LDYtMy43LDkuOC04LDEyLjljLTAuMywwLjItMC42LDAuMy0wLjksMC4yYy0wLjYtMC4xLTEuOS0zLjYtMS41LTQuMWMyLjMtMyw0LjctNS45LDcuMS04LjgmIzEwOyYjOTtjMC40LTAuNCwwLjgtMC44LDEuNC0xYzAuNS0wLjIsMS0wLjMsMS42LTAuMkM0MzAsMTIxLjksNDMwLDEyMi42LDQzMC4xLDEyMi43eiIgY2xhc3M9InN0MCIvPiYjeGE7PHBhdGggZD0iTTQzMCwyNDEuMmw1LTEuOGMzLjctMS4zLDcuNC0yLjYsMTEuMS0zLjljMC4zLTAuMSwwLjgtMC4xLDAuOSwwYzAuOCwxLjYsMi40LDEuMSwzLjcsMS40JiMxMDsmIzk7YzIuNywwLjYsNS4xLDEuOSw3LjEsMy44YzEuMSwxLDEuNCwyLjUsMC43LDMuOGMtMS40LTAuOS0yLjctMS43LTQtMi41Yy0xLjUtMC45LTMuNi0wLjgtNC41LTIuOGMtMC4xLTAuMy0wLjktMC40LTEuNC0wLjMmIzEwOyYjOTtjLTEuOCwwLjEtMy41LDAuMy01LjMsMC41Yy0yLDAuMS0zLjksMC44LTUuNSwyYzAuMiwwLjIsMC41LDAuMywwLjgsMC4zYzEuOC0wLjQsMy43LTAuOCw1LjUtMS4yYzUtMC4zLDExLjgsMy41LDEzLjksNy43JiMxMDsmIzk7YzEuMSwyLjMsMC42LDMuOS0xLjgsNC42Yy0xLjksMC40LTMuOSwwLjYtNS44LDAuNWMtMC41LDAtMS4yLTAuNy0xLjYtMS4yYy0wLjYtMC45LTAuOS0xLjktMS42LTIuN2MtMC44LTAuNy0xLjYtMS40LTIuNS0xLjkmIzEwOyYjOTtjMC4yLTEuMiwzLTAuMiwyLTIuNGMtMy42LTEuMy03LTAuNS0xMC41LDAuNmMwLDAuMiwwLDAuMywwLDAuNWMxLDAuMSwyLDAuMSwzLDAuMmMwLjUsMC4xLDEsMC4zLDEuNCwwLjZjMSwwLjYsMiwxLjMsMywxLjkmIzEwOyYjOTtjMS40LDAuNywyLjgsMS40LDMuMSwzLjJjMC4xLDAuOCwxLjEsMS40LDEuNywyYzEuOCwyLjEsMi4zLDQuOCwxLjIsNi40Yy0xLjYsMi40LTQuOSw0LTcuNCwzLjFjLTIuMy0wLjktNC41LTItNi42LTMuMiYjMTA7JiM5O2MtMi4zLTEuMy00LjQtMi43LTYuNi00LjFjLTMuOC0yLjQtOC4yLTIuNS0xMi40LTMuMWMtNC4xLTAuNS04LjItMC45LTEyLjItMS43Yy0yLjUtMC41LTMuMS0xLjUtMy00LjFjMC4xLTMuOCwxLjYtNy4xLDMuNC0xMC40JiMxMDsmIzk7YzIuNy00LjgsNS41LTkuNiw4LjMtMTQuNWMxLjQtMi40LDMuMS00LjYsMy4yLTcuNmMwLjEtMC40LDAuMS0wLjksMC4xLTEuM2MtMC4zLTEuNiwwLjYtMiwxLjktMi4zYzAuOC0wLjEsMS42LTAuNCwyLjMtMC44JiMxMDsmIzk7Yy0zLjMtMC41LTYuMywwLjctOS4zLDEuOWMtMS43LDAuNy0zLjQsMS4yLTUuMSwyYy01LjcsMi45LTEwLjEsNy4yLTE0LjMsMTJjLTIsMi4zLTQuNCw0LjQtNi40LDYuNGMtMS41LTIuNC0yLjktNC40LTQuMS02LjQmIzEwOyYjOTtjLTAuMi0wLjUtMC4yLTEuMSwwLjEtMS42YzAuOC0wLjksMS43LTEuNywyLjctMi4zYzUtMy4xLDkuOS02LjQsMTUuMS05LjFjNS44LTMuMSwxMS43LTUuOSwxNy44LTguNGMzLjItMS4zLDYuOC0xLjUsMTAuMi0yLjEmIzEwOyYjOTtjMC40LTAuMSwwLjctMC4xLDEuMSwwLjFjMS4xLDEuMSwyLjIsMi4zLDMuNCwzLjVjLTIuMSwxLjUtNCwzLjItNS45LDVjLTQuNyw1LjEtOS41LDEwLjItMTIuNCwxNi43Yy0xLjQsMy4yLTIuNyw2LjYtMi4xLDEwLjMmIzEwOyYjOTtjMC40LDEuNCwwLjksMi44LDEuNSw0LjJjMC43LDAuNSwxLjYsMC45LDIuNCwxLjJjMy43LDAuOCw3LjUsMC4zLDEwLjktMS4yTDQzMCwyNDEuMnoiIGNsYXNzPSJzdDAiLz4mI3hhOzxwYXRoIGQ9Ik0zMzksMTk3Yy0xLjEsMS45LTMuNCwyLjktNS41LDIuMmMtMS4zLTAuMy0yLjQtMS45LTMuNS0yLjljMCwwLDAtMC4yLDAtMC4yYzEuNi0xLjEsMy4yLTIuMyw0LjktMy4zJiMxMDsmIzk7YzEuMi0wLjcsMS42LDAuNCwyLjEsMS4yUzMzOC40LDE5NiwzMzksMTk3eiIgY2xhc3M9InN0MCIvPiYjeGE7PHBhdGggZD0iTTMzOS40LDE5OS45bDYtNC44YzEuNSwxLjEsMS42LDIsMC42LDMuN1MzNDEuOSwyMDEsMzM5LjQsMTk5Ljl6IiBjbGFzcz0ic3QwIi8+JiN4YTs8cGF0aCBkPSJNMzM1LjUsMjA3LjljLTIsMS45LTQuNiwyLjEtNy4yLDAuNkMzMjkuNywyMDYuOCwzMzIuNSwyMDYuNSwzMzUuNSwyMDcuOXoiIGNsYXNzPSJzdDAiLz4mI3hhOzxwYXRoIGQ9Ik0zMjYuNywyMTdsLTQuNSwyQzMyMywyMTYuOCwzMjQuOSwyMTUuOSwzMjYuNywyMTd6IiBjbGFzcz0ic3QwIi8+JiN4YTs8cGF0aCBkPSJNODMuOSwyMTkuN2MyLjgsMC40LDUuNSwwLjYsOC4zLDEuMXM1LjcsMS4yLDguNSwxLjljMC42LDAuMywxLjEsMC42LDEuNSwxYy0wLjUsMC4yLTEuMSwwLjUtMS42LDAuNCYjMTA7JiM5O2MtNS42LTEuMS0xMS4yLTIuMi0xNi45LTMuM0w4My45LDIxOS43eiIgY2xhc3M9InN0MCIvPiYjeGE7PHBhdGggZD0iTTEwMy44LDIyMS43Yy0zLjMsMC4xLTYuNS0wLjgtOS43LTEuNWwwLjEtMC43bDkuNywxLjJMMTAzLjgsMjIxLjd6IiBjbGFzcz0ic3QwIi8+JiN4YTs8cGF0aCBkPSJNNC4zLDI1Ni45Yy0wLjItMC42LTAuNC0xLjItMC41LTEuOGMtMS4yLTQuMSwxLjItOC4zLDUuMy05LjVjMS4xLTAuMywyLjMtMC40LDMuNS0wLjJjNC4xLDAuNyw2LjcsMy4yLDguNiw2LjgmIzEwOyYjOTtjMS4zLDIuNiwxLjIsNS0wLjgsNy4yYy0wLjIsMC4zLTAuNCwwLjctMC41LDEuMWMyLjItMC4yLDQuMywwLjYsNiwyYzIuMiwxLjcsMS44LDMuNywxLjMsNS41YzIuNS0wLjYsNC43LTEuNSw3LTEuNiYjMTA7JiM5O2MyLjctMC4xLDQuMywxLjgsNS41LDRjMi44LDUuMSwyLjIsOC40LTIuMiwxMS43YzAuOCwxLjQsMS40LDIuOSwxLjksNC40YzAuMywxLjktMS4xLDIuOC0zLDMuNGwyLjIsMC44YzAuNywwLjYsMS40LDEuMiwyLjEsMS45JiMxMDsmIzk7YzIuMiwyLDIuMywzLjgsMC40LDZjLTEuMiwxLjQtMS44LDMtMS4xLDQuOGMxLjItMS43LDIuMS0zLjcsMy42LTVjMS44LTEuNSw0LjItMSw2LjMtMC4xczIuMywzLjcsMS4yLDYuNGwxMS4zLDQuNSYjMTA7JiM5O2MwLTItMC4xLTMuOSwwLTUuOWMwLjEtMC45LDAuNC0yLDItMS4xYzEsMC40LDIuMiwwLjUsMy4zLDAuMmMwLjctMC4yLDEuMi0xLjEsMS44LTEuN2MtMC42LTAuNy0xLjQtMS40LTIuMi0xLjkmIzEwOyYjOTtjLTAuNS0wLjItMS4zLDAuNC0yLDAuM3MtMS40LTAuNC0xLjUtMC43Yy0wLjktMy4yLDEtNy4zLDUuMy02LjZjMC4zLDAsMC43LDAsMS0wLjFsMC4zLTAuNWMtMC40LTAuMi0wLjgtMC40LTEuMS0wLjYmIzEwOyYjOTtjLTIuMi0xLjktMi42LTQuMS0wLjktNi40czQtMyw2LjYtMy40YzMuNS0wLjYsNS42LDAuNyw2LjUsNC4xYzMuMS0xLjksNS44LTEuNCw4LjUsMS42Yy0wLjUtMS4zLTAuOC0yLjEtMS4xLTIuOSYjMTA7JiM5O2MtMS42LTUuMywwLjEtOC40LDUuNS05LjFjNS44LTAuNyw2LjctMC4yLDguNSwzbDAuNS0wLjFjLTAuNC0zLjYtMi42LTUuOC02LjItNmMtMS0wLjEtMS41LTAuMy0xLjYtMS40Yy0wLjQtMy4xLTEuMS02LjItMS4zLTkuNCYjMTA7JiM5O2MtMC4zLTUuMi0wLjQtMTAuNC0wLjQtMTUuNWMwLjEtMSwwLjUtMS45LDEuMi0yLjZjNC40LTQuNCwxMC4yLTcsMTYuNC03LjRjNC41LTAuMyw4LjUtMi4yLDEwLjUtNi40YzEuMi0yLjgsMi4xLTUuOCwyLjctOC44JiMxMDsmIzk7YzAuOS00LDEuNC04LjEsMi4xLTEyLjFjMC41LTIuNywxLjEtNS41LDEuNi04LjJjMC4zLTEuOC0wLjYtMy45LDEuOC00LjljLTAuOS0yLjEsMS4zLTMuNiwxLjMtNS40Yy0wLjItMS45LTAuNS0zLjktMS01LjgmIzEwOyYjOTtjLTAuOS01LjgtMi44LTExLjQtMi40LTE3LjRjMS43LTAuNiwzLjQtMS4yLDUuMS0yYzMuMi0xLjcsNi4yLTMuNCw5LjQsMGMwLjMsMC4zLDAuNywwLjUsMS4xLDAuN2MxLjgsMC45LDMuOCwwLjgsNC43LTAuMyYjMTA7JiM5O2MxLTEuNiwwLjgtMy42LTAuNS00LjljLTEuMy0xLjQtMi44LTIuNS00LjQtMy41Yy0wLjgtMC40LTEuNC0xLjItMS41LTIuMWMtMC41LTMuMS0yLjctNS40LTQuOC01LjhjLTAuNywxLjctMS4zLDMuNC0yLDUmIzEwOyYjOTtjLTIsMS4zLTIsMS4xLTIuOS0xYy0xLjktNS01LjctOC4xLTEwLjYtOS45Yy0wLjYtMC4yLTEuMy0wLjUtMS45LTAuN2MwLjUtMC42LDEuMS0xLjEsMS44LTEuNWMwLjYtMC4yLDEuMi0wLjQsMS44LTAuNSYjMTA7JiM5O2MwLjItMC4xLDAuMy0wLjEsMC41LTAuMmwtMS4zLTEuOWw5LjEsMC45bDEuMi0wLjJjLTIuOS0xLjgtMTEuMi0yLjItMTQuMy0wLjdsMS45LDEuNGMtMS4xLDEuMi0yLjEsMi40LTMuMywzLjUmIzEwOyYjOTtjLTAuOSwwLjctMS4yLDItMC42LDMuMWMwLjYsMi4xLDEuOSwzLjksMy43LDUuMWMwLjgsMC42LDEuNSwxLjIsMi4yLDEuOWwtMTAuMiwxLjZjMC4yLTEuMy0wLjEtMi45LDAuNS00LjEmIzEwOyYjOTtjMS45LTMuNC0wLjItNS42LTIuMi03LjZjLTIuNC0yLjYtNS01LTcuNi03LjVjLTAuNS0wLjUtMC43LTEuMS0wLjgtMS43bDUuNiwxLjdjLTAuMy0xLjctMC41LTMuMi0wLjgtNC43JiMxMDsmIzk7Yy0wLjgtNC42LTAuNy05LjIsMC40LTEzLjdjMC44LTMuMSwxLjgtNi4xLDIuOC05YzEuMS0yLjksMy4yLTUuMyw2LTYuN2MtMC43LDMuMy0xLjUsNi42LTIsOS45cy0xLjQsNi41LTAuNSw5LjcmIzEwOyYjOTtjMS41LTIuNCwyLjgtNC44LDQuNS03YzEuNy0yLjIsMy43LTQuMiw1LjktNmMtMS4zLDIuOC0zLjYsNS4xLTIuOSw4LjhjMS40LTEsMi42LTEuOSwzLjgtMi44YzUuNS00LjEsMTIuMy01LjgsMTktNSYjMTA7JiM5O2MzLjYsMC4zLDcuMiwwLjQsMTAuOCwwLjJjMS40LTAuMiwyLjctMC41LDQtMC45Yy0xLjEsMi0zLDMuNS01LjIsNC4xYy00LjYsMS42LTkuMywyLjgtMTQsNC4zYy0xLjksMC43LTMuNiwxLjgtNS4xLDMuMiYjMTA7JiM5O2MxMy42LTEuNiwyMC45LDYuMSwyNi4xLDE3LjZjLTEuNi0wLjMtMy4xLTAuNi00LjctMS4xYy02LTIuMS0xMS45LTQuNy0xOC4zLTUuNmMtNC43LTAuNy05LjQtMC4yLTEzLjgsMS40Yy0wLjQsMC4yLTAuNywwLjQtMSwwLjcmIzEwOyYjOTtjMC42LDAuMywxLjMsMC41LDIsMC43YzMuNiwwLjMsNywxLjksOS43LDQuNGMwLjcsMC41LDEuNCwwLjksMi4yLDEuM2MwLjEtMC4yLDAuNC0wLjYsMC40LTAuNmMtMi43LTItNS40LTQtOC01LjkmIzEwOyYjOTtjMC4zLTAuMSwwLjYtMC4xLDAuOS0wLjFjNi40LTAuMiwxMi44LDAuOSwxOC43LDMuMmMzLDEuMSw2LjIsMS45LDkuNCwyLjRjMS41LDAuMSwzLjEsMC4xLDQuNi0wLjJjLTEuOC0zLjEtMy41LTUuOC01LTguNSYjMTA7JiM5O2MtMy01LjYtOC4zLTkuNS0xNC41LTEwLjZsLTIuMS0wLjRjMC4zLTAuNCwwLjctMC43LDEuMi0wLjhjMy4zLTEsNi44LTEuNywxMC0yLjljMy45LTEuNSw3LjEtNCw4LjQtOC43Yy0wLjksMC4xLTEuNywwLjMtMi41LDAuNiYjMTA7JiM5O2MtMy4yLDEuMi02LjcsMS42LTEwLjEsMS4yYy0yLjUtMC4zLTUtMC42LTcuNi0wLjhjLTUuNi0wLjUtMTEuMSwxLjMtMTUuMiw1LjJjLTAuNywwLjYtMS40LDEuMy0yLDJsLTAuNi0wLjUmIzEwOyYjOTtjMS41LTIuOCwzLjEtNS43LDQuNy04LjZjLTMsMC40LTUsMi4yLTYuOSw0LjJzLTMuMyw0LjItNS4yLDYuNWwyLjktMTcuNWwtMC43LTAuMWMtMTIsOS4xLTE0LDIxLjUtMTEuNSwzNS41JiMxMDsmIzk7Yy0yLjItMC42LTQuMi0yLjEtNy0wLjljMi44LDIuOSw1LjMsNS42LDcuOSw4LjJjMS42LDEuNiwzLjIsMy4yLDQuOCw0LjljMC44LDAuOCwwLjksMS45LDAuNCwyLjljLTAuNSwxLjgtMC44LDMuNy0xLjEsNS42JiMxMDsmIzk7Yy0wLjEsMC45LTAuNCwxLjctMC45LDIuNGMtMi43LDIuNi0yLjYsNi4xLDAuNSw4YzEuNywxLjIsMy43LDEuOSw1LjgsMi4xYzMuMSwwLjEsNCwyLjIsNC43LDQuNGMyLjYsOCwyLjksMTYuMSwxLjksMjQuNCYjMTA7JiM5O2MtMC44LDYuNS0xLjgsMTIuOS00LjUsMTljLTAuNSwxLjYtMi4xLDIuNi0zLjgsMi4zYy01LjMtMC4yLTEwLjYsMC0xNS42LDIuMmMtMiwwLjktNS41LDAuMy02LjMtMS4xYy0yLjctNC4yLTUuNy04LjMtNy45LTEyLjcmIzEwOyYjOTtjLTQuNi04LjctNy4zLTE4LjMtOC0yOC4xYy0wLjQtNi4yLTAuNy0xMi40LDAuNy0xOC42YzEuOS04LjUsNC0xNyw2LjItMjUuNGMzLjMtMTIuNywxLjctMjQuMy02LjEtMzVjLTUuOC03LjktMTEuOS0xNS41LTIwLTIxLjEmIzEwOyYjOTtjLTEwLjMtNy4xLTIxLjgtMTIuNC0zMy44LTE1LjhjLTAuMiwwLTAuNC0wLjItMC41LTAuMWMtMC42LDAuMi0xLjQsMC4zLTEuOCwwLjhjLTAuMiwwLjMsMC4xLDEuMiwwLjQsMS42YzAuNywwLjgsMS41LDEuNiwyLjMsMi4yJiMxMDsmIzk7QzMzLjYsNzIuNyw0Myw4MCw1MC45LDg5YzUuNCw2LjIsMTAuOSwxMi4zLDE1LjIsMTkuNGMwLjUsMC45LDAuOSwxLjgsMS40LDIuN2wtMC41LDAuM2MtMS40LTEuNS0zLTMtNC42LTQuMyYjMTA7JiM5O2MtNi4zLTQuNy0xMi43LTkuMi0xOS0xMy44Yy0xLjQtMS0zLTEuMi01LjMtMC42YzExLjQsMTMuOSwyMS44LDI4LjEsMjcuMyw0NS4yYy0wLjMsMC0wLjYtMC4xLTAuOS0wLjRjLTEuNy0xLjktMy4zLTMuOC01LjEtNS42JiMxMDsmIzk7Yy0zLjItMy40LTcuMS02LjItMTEuNS03LjljLTItMC44LTMuNSwwLjYtMywyLjdjMC4yLDAuNywwLjQsMS41LDAuOCwyLjFjMy41LDYuNiw3LDEzLjIsMTAuNSwxOS44YzEuMywyLjQsMyw0LjYsNCw3LjEmIzEwOyYjOTtjMS40LDMuOSwyLjQsOCwzLjUsMTJjMC4xLDAuMi0wLjgsMC45LTEuMywwLjljLTEuMy0wLjEtMi42LTAuNC0zLjktMC42Yy0yLTAuMy00LTAuNy02LTAuOGMtMC41LDAtMS4xLDAuNi0xLjYsMSYjMTA7JiM5O2MwLjIsMC40LDAuNSwwLjgsMC44LDEuMWM1LjEsMy42LDkuMyw4LjUsMTIuMSwxNC4xYzAuMiwwLjcsMC4zLDEuMywwLjMsMmMtMy40LTEuNC02LjMtMi41LTkuMS0zLjhjLTEuNy0wLjgtMy4yLTEuOC00LjgtMi42JiMxMDsmIzk7Yy0wLjUtMC4yLTEtMC4xLTEuNCwwLjJjLTAuMiwwLjItMC4yLDEsMCwxLjNjMi4zLDMuNiw0LjQsNy4zLDcuMSwxMC42YzQuOCw1LjcsMTAuMywxMC44LDE2LjQsMTUuMWMwLjMsMC40LDAuNywwLjgsMC45LDEuMiYjMTA7JiM5O2MtMS0wLjMtMi0wLjUtMy0wLjZjLTEuMSwwLjEtMi4zLDAuMy0zLjQsMC42YzAuNywwLjgsMS4zLDEuOCwyLjIsMi4yYzUuMiwyLjcsMTAuNCw1LjIsMTUuNiw3LjljMC41LDAuMywxLDAuNiwxLjUsMSYjMTA7JiM5O2MtMi42LDAuNy01LjMsMS4yLTgsMS42Yy0wLjgsMC4zLTEuNiwwLjctMi40LDEuMmMwLjUsMC42LDAuOCwxLjYsMS41LDEuOWMzLjcsMS43LDcuNiwzLjIsMTEuMyw0LjljMC42LDAuMiwxLjEsMC42LDIsMSYjMTA7JiM5O2MtMiwxLjYtMy43LDMtNS4zLDQuNGMtMS45LDEuNi00LjMsMi44LTQuOSw1LjVjLTAuNiwyLjctMC4zLDUuNSwwLjcsOGMxLjUsMy42LDIuNyw3LjIsMy43LDEwLjljMS45LDgsMi4yLDE2LjMsMi4yLDI0LjUmIzEwOyYjOTtjMCwwLjItMC4yLDAuNC0wLjMsMC42Yy0xLjItMC4xLTIuMy0wLjUtMy4yLTAuMmMtMS4xLDAuNC0xLjUsMC4xLTIuMS0wLjdjLTEuMS0xLjgtMy0yLjktNS4xLTIuOGMtMywwLjItNS45LDEuMy04LjIsMy4yJiMxMDsmIzk7Yy0yLDEuNi0yLjksNC41LTEuOCw2LjVjMSwxLjcsMC43LDIuMS0xLjIsMi41Yy00LjUsMC44LTYuMiw1LTMuNiw4LjhjMC4zLDAuNCwwLjYsMSwwLjQsMS4zYy0wLjcsMS45LTEuNSwzLjgtMi4yLDUuNWwtNy42LTMuMiYjMTA7JiM5O2MwLTAuMiwwLTAuNSwwLjEtMC43YzAuOS0zLjItMC42LTYtMy44LTYuN2MtMS40LTAuMi0yLjktMC4zLTQuMy0wLjFjLTEsMC4xLTEuNS0wLjEtMS42LTEuMWMtMC4xLTIuNC0xLjctMy43LTMuMy01JiMxMDsmIzk7YzAuMi0wLjYsMC40LTEuMSwwLjUtMS43YzAuMi0xLjIsMC44LTIuOCwwLjItMy42Yy0xLjItMS43LTAuNy0yLjUsMC42LTMuOWMyLjktMywyLjItNi41LDEtMTBjLTEuNy01LjMtNi4zLTcuNS0xMS41LTUuOSYjMTA7JiM5O2MtMC42LDAuMS0xLjItMC4yLTEuNi0wLjdjLTAuOC0yLjMtMi43LTQuMS01LTQuOWMtMS4xLTAuNC0xLjQtMC45LTEtMS45YzAuOS0yLjIsMC42LTQuNy0wLjctNi43Yy0wLjgtMS4zLTEuNy0yLjUtMi42LTMuNyYjMTA7JiM5O2MtMi45LTMuNC03LjctNC45LTEwLjktMy42Yy00LjIsMS43LTYuMyw1LjQtNi4xLDEwLjNjMCwwLjQtMC4xLDAuOC0wLjIsMS4ybC0yLTEuMnYxLjFsMy45LDIuNUw0LjMsMjU2Ljl6IE02Ni42LDI5OS41JiMxMDsmIzk7YzAuNiwwLDEuMSwwLjYsMS42LDFsLTEuNSwxLjJsLTEuNy0xLjRDNjUuNSwzMDAsNjYuMSwyOTkuNCw2Ni42LDI5OS41eiBNOTMuMiwyNzIuMWMtMC40LTAuNS0xLjEtMS0xLjItMS42JiMxMDsmIzk7Yy0xLjEtNy40LTIuMS0xNC45LTMuMS0yMi4zaDAuNGMtMC4xLTEuNC0wLjEtMi44LDAtNC4yYzAuMi0wLjgsMC42LTEuNSwxLjEtMi4xYzAuNC0wLjMsMC44LTAuNCwxLjMtMC4zYzAuMywwLjMsMC41LDAuOCwwLjQsMS4zJiMxMDsmIzk7Yy0xLjgsOS4yLTAuMiwxOC4yLDEuMywyNy4zQzkzLjUsMjcwLjksOTMuNCwyNzEuNSw5My4yLDI3Mi4xeiBNMTAwLjksMjM2LjZjLTIsMS4yLTMuOSwyLjUtNS44LDMuOGMtMS4yLDAuOC0xLjEsMC45LTIuNy0wLjUmIzEwOyYjOTtjMy4zLTIuMSw2LjQtNC4xLDkuNi02YzAuNi0wLjMsMS42LDAuMSwyLjUsMC4ybDAuMSwwLjVDMTAzLjQsMjM1LjMsMTAyLjEsMjM1LjksMTAwLjksMjM2LjZ6IE0xNDIuMywxNTljMC42LDAuMSwxLjIsMC4zLDEuNywwLjUmIzEwOyYjOTtsMC4zLTAuNGwtMS44LTEuNmMyLjItMC41LDUuNiwyLjksNC45LDUuMWMtMC40LDAuNy0xLjEsMS4xLTEuOSwxLjFjLTEuNi0wLjYtMy0xLjQtNC40LTIuNGMtMC4zLTAuMi0wLjMtMS4zLTAuMS0xLjgmIzEwOyYjOTtDMTQxLDE1OS4yLDE0MS44LDE1OSwxNDIuMywxNTl6IE0xMTguMSwxNDUuNWMtMS4yLTEuNi0wLjctMi41LDEuNC0yLjZjMy45LTAuMiw2LjQsMi4zLDksNC42YzAuMiwwLjMsMC4zLDAuNywwLjIsMSYjMTA7JiM5O2MtMC4yLDEuNC0wLjUsMi45LTAuOCw0LjdjLTEuNC0wLjItMy4zLDAuMS00LjctMS42QzEyMS40LDE0OS42LDExOS42LDE0Ny43LDExOC4xLDE0NS41TDExOC4xLDE0NS41eiBNMTEyLDE2My42JiMxMDsmIzk7Yy0zLjYtMi4xLTMuNS01LjYsMC4yLTcuNmMyLjktMS41LDYuMy0yLjIsOS42LTEuOGMzLDAuMyw2LDAuOCw5LDEuMWMxLjgsMC4yLDMuNiwwLDQuNy0xLjdsMi4yLTQuNWMxLjIsMC43LDIuMSwxLjksMi42LDMuMiYjMTA7JiM5O2MxLjgsNC4xLTAuOSw5LjItNSw5Yy0xLjUtMC4xLTMuMS0xLjMtNC40LTIuM2MtMy0yLjItNy0yLjYtMTAuMy0wLjljMi4xLDAuMSw0LjQtMC4xLDYuNSwwLjVjMi4xLDAuNiwzLjksMi4yLDYuMiwzLjYmIzEwOyYjOTtjLTQuMiwyLjUtOC4zLDIuNS0xMi4zLDMuMWwwLDBDMTE3LjksMTY1LjMsMTE0LjcsMTY1LjMsMTEyLDE2My42eiBNMTA4LjQsMjE3LjljMi4yLTAuMSw0LjMsMC4xLDYuNSwwYzIuMSwwLDQuMS0xLjMsNC44LTMuNCYjMTA7JiM5O2MyLjMtNS4yLDMuOC0xMC44LDQuNS0xNi40YzEuMi02LjksMS4zLTE0LDAuMi0yMWMtMC41LTIuNy0xLjktNS4zLTIuOS04Yy0wLjQtMC44LTAuOC0xLjYtMS4zLTIuM2w2LjQtMC43YzAsMC44LDAsMS40LDAsMi4xJiMxMDsmIzk7YzAuNCw0LjMsMC43LDguNSwxLjIsMTIuOGMwLjIsMi4xLDAuOCw0LjEsMS4yLDYuMWMwLjEsMC4zLDAuMiwwLjgsMCwwLjljLTEuNSwxLjItMC43LDIuNi0wLjQsMy45YzAuMSwwLjQsMC4yLDEsMCwxLjMmIzEwOyYjOTtjLTEuNywxLjktMS4yLDQuMy0xLjcsNi41Yy0wLjcsMi45LTEuNiw1LjctMi4yLDguNmMtMC44LDQuNC0xLjMsOC44LTIuMSwxMy4xcy0yLjIsOC41LTYuNiwxMC41Yy0xLjQsMC43LTIuOSwxLjEtNC41LDEuMiYjMTA7JiM5O2MtMy45LDAtNy44LTAuOC0xMS4zLTIuNGMwLTAuMiwwLjEtMC40LDAuMS0wLjdjMi41LDAuNCw1LDAuNiw3LjUsMS4xYzUuNSwxLjMsMTEuMS0xLjgsMTMuMS03LjFjMC4yLTAuNiwwLjMtMS4yLDAuNC0xLjkmIzEwOyYjOTtjMC4yLTIuMi0wLjgtMy40LTMuMS0zLjJjLTMuMywwLjMtNi41LDAuOS05LjgsMWMtMi4zLDAtNC42LTAuMS02LjktMC40di0xQzEwMy43LDIxOC41LDEwNiwyMTguMSwxMDguNCwyMTcuOUwxMDguNCwyMTcuOXomIzEwOyYjOTsgTTEwNi41LDIyMS40YzMuMS0wLjYsNi4zLTAuNyw5LjQtMXYwLjFjMC4xLDAsMC4zLDAsMC40LDBsMy40LDAuN2MtMC40LDEuNC0wLjQsMy4xLTEuMiw0LjJjLTIuMSwzLTUuNyw0LjctOS4zLDQuNSYjMTA7JiM5O2MtMi4zLDAtNC4zLTEuNC01LjItMy41QzEwMy4xLDIyNCwxMDMuOSwyMjEuOSwxMDYuNSwyMjEuNEwxMDYuNSwyMjEuNHogTTk0LjIsMjE5LjVsOS43LDEuMmwtMC4xLDFjLTMuMywwLjEtNi41LTAuOC05LjctMS41JiMxMDsmIzk7TDk0LjIsMjE5LjV6IE03OSwyMTEuOWMtMS40LTAuOC0yLjgtMS41LTQuMy0yLjFsMC4xLTAuNWMwLjgsMC4xLDEuNiwwLjEsMi4zLDBjMC41LTAuMiwxLTAuNSwxLjQtMC45Yy0wLjMtMC40LTAuNi0wLjktMS0xLjImIzEwOyYjOTtjLTEwLjItNS43LTE4LTEzLjgtMjQuNy0yMy4yYy0wLjItMC4zLTAuMy0wLjctMC41LTFjMC43LDAuMiwxLjIsMC4zLDEuNiwwLjRjMi42LDEsNS4yLDIsNy44LDIuOWMwLjYsMC4yLDEuMiwwLjIsMS45LDAuMSYjMTA7JiM5O2MyLTAuMSwyLjUtMC45LDEuOS0yLjdjLTEuMi0zLjMtMy02LjQtNS41LTguOWMtMS4zLTEuNC0yLjYtMi44LTQuMi00LjZjNC4xLDAsNy42LDAuNCwxMC45LDIuMmwwLjUtMC40Yy0wLjktMi44LTEuNy01LjUtMi42LTguMyYjMTA7JiM5O2wwLjUtMC4yYzAuOSwxLjMsMS44LDIuNiwyLjcsMy45bDAuNi0wLjNjLTAuOC0yLjEtMS43LTQuMi0yLjctNi4zYy00LjUtNy44LTkuMy0xNS41LTEzLjgtMjMuNGMtMS44LTMuMS0zLjMtNi40LTQuOC05LjcmIzEwOyYjOTtjLTAuMS0wLjUtMC4xLTAuOSwwLTEuNGMwLjMsMCwwLjgtMC4xLDEsMC4xYzYuOSwzLjgsMTMuNyw3LjgsMTcuNiwxNWMwLjgsMS41LDEuNCwzLjEsMi4zLDQuNmMwLjMsMC42LDEsMC45LDEuNiwxLjMmIzEwOyYjOTtjMC4yLTAuNiwwLjgtMS40LDAuNi0xLjljLTEuMy00LjgtMi40LTkuNy00LjItMTQuNGMtNC43LTEyLjQtMTIuNC0yMi44LTIwLjgtMzIuOWMtMC41LTAuNy0xLTEuNC0xLjYtMi4ybDAuNi0wLjYmIzEwOyYjOTtjNS4yLDMuOCwxMC42LDcuMywxNS40LDExLjVzOC44LDksMTMuNCwxMy45YzAtMC42LTAuMS0xLjEtMC4zLTEuN2MtOC0xOS4yLTIxLjMtMzQuMy0zNy41LTQ2LjljLTMuNC0yLjYtNi44LTUuMi0xMC4yLTcuOSYjMTA7JiM5O2MtMC4zLTAuMi0wLjMtMC42LTAuNi0xLjFjOC43LDIuMiwxNyw1LjUsMjQuOSw5LjhjMTIuNyw2LjksMjIsMTcsMjkuNywyOWM0LjUsNi43LDYuMiwxNSw0LjgsMjIuOWMtMS43LDkuNi00LDE5LjItNi40LDI4LjcmIzEwOyYjOTtjLTIuNSw5LjUtMi45LDE5LjQtMS4yLDI5YzEuNCw2LjgsMy4yLDEzLjUsNS42LDIwYzEuOCw1LjIsNS4yLDkuNiw5LDEzLjVjMC4yLDAuMiwwLjUsMC40LDAuNywwLjdjMC4zLDAuNywwLjUsMS40LDAuNywyLjEmIzEwOyYjOTtjLTAuOSwwLTIuMSwwLjQtMi44LDBDODUuNywyMTYuNiw4Mi40LDIxNC4yLDc5LDIxMS45eiBNODMuOSwyMTkuN2MyLjgsMC40LDUuNSwwLjYsOC4zLDEuMXM1LjcsMS4yLDguNSwxLjljMC42LDAuMywxLjEsMC42LDEuNSwxJiMxMDsmIzk7Yy0wLjUsMC4yLTEuMSwwLjUtMS42LDAuNGMtNS42LTEuMS0xMS4yLTIuMi0xNi45LTMuM0M4My44LDIyMC4zLDgzLjksMjIwLDgzLjksMjE5Ljd6IE03Ny40LDIyMS43YzAtMC4yLDAtMC41LDAuMS0wLjcmIzEwOyYjOTtjMS4zLDAsMi42LDAuMSwzLjksMC4zYzUuNywxLjEsMTEuMywyLjYsMTcsMy41YzIuNywwLjQsNC41LDEuMyw1LjIsNC4xQzk0LjIsMjI5LDg1LjcsMjI1LjcsNzcuNCwyMjEuN3ogTTg2LjEsMjM0LjImIzEwOyYjOTtjMS42LTEuNSwzLjItMyw0LjktNC40YzAuNi0wLjUsMS40LTAuNywyLjItMC41YzIsMSw0LDIuMSw1LjgsMy40YzAuMiwwLjQsMC4yLDAuOCwwLDEuMmMtMy4xLDIuMy02LjIsNC41LTkuOCw3LjEmIzEwOyYjOTtjMC45LTQuNS0yLjctMy44LTQuOC01LjJMODYuMSwyMzQuMnogTTgyLjMsMjQzLjhjLTAuNC0xLjYtMC42LTMuMy0wLjUtNWMwLjEtMS41LDEtMS45LDIuNC0xLjJjMC4yLDAuMSwwLjQsMC4zLDAuNywwLjQmIzEwOyYjOTtjMy4xLDEsMy4xLDMuMiwzLDZjLTAuMSw0LjEsMC4yLDguMSwwLjcsMTIuMWMwLjUsNSwxLjIsOS45LDIuMSwxNC45YzAuMywxLjktMC40LDIuNS0yLDIuOWMtMC4zLTIuOC0wLjYtNS41LTAuOS04LjEmIzEwOyYjOTtDODcsMjU4LjEsODQuNCwyNTEsODIuMywyNDMuOHoiLz4mI3hhOzxwYXRoIGQ9Ik00OTcuOSwyNjguM2MtMC4zLTAuNC0wLjUtMS0wLjQtMS42YzAuMi0wLjYsMC41LTEuMSwwLjktMS42YzIuMy00LjQsMC4xLTgtNC42LTcuOWMtMC44LTAuMS0xLjUtMC4zLTIuMi0wLjgmIzEwOyYjOTtjLTIuNC0xLjMtNC45LTIuMi03LjUtMC43bDAuNSwwLjhjMi43LTAuOCw0LjItMC42LDYuMywxLjRjLTIuMS0wLjEtMy40LDIuMy01LjUsMC42Yy0wLjItMC4yLTAuOC0wLjEtMS4xLDAmIzEwOyYjOTtjLTMuNywxLjUtNi41LDQuNi03LjYsOC41Yy0wLjEsMC41LTAuMSwxLDAsMS41bDAuNiwwLjFjMC4zLTAuNSwwLjYtMS4xLDAuOS0xLjdjMC44LTIuNCwyLjMtNC40LDQuMy01LjljMC43LTAuNiwxLjQtMS4xLDIuMywwJiMxMDsmIzk7YzAuMiwwLjMsMS4xLDAuMiwxLjcsMGMyLjYtMC43LDUuMS0xLjYsNy42LTIuMmMyLjEtMC41LDIuOCwwLjEsMi44LDIuM2MwLDAuNywwLDEuNC0wLjEsMi4xYy0wLjIsMy43LTAuMywzLjYtMy45LDMuNyYjMTA7JiM5O2MtMi4xLDAuMi00LjIsMC41LTYuMywxYy0wLjYtMi4xLTEuNS0yLjUtMy4zLTAuOWMtMC45LDEtMS43LDIuMS0yLjIsMy40Yy0wLjksMS41LTEuNiwzLjEtMi40LDQuN2MtMC4yLDAuNS0wLjQsMS4xLTAuNSwxLjYmIzEwOyYjOTtsMC41LDAuM2w1LjEtOC41YzAuMywxLDAuNSwxLjYsMC43LDIuM2MwLjctMC4xLDEuMy0wLjMsMS45LTAuNWMyLjctMS4zLDUuOC0xLjYsOC43LTFjNC4yLDAuNyw1LjgsNC43LDMsOGMtMiwyLjMtNC42LDQuMi02LjgsNi40JiMxMDsmIzk7Yy0xLjgsMS42LTMuNCwzLjUtNC44LDUuNWMtMi42LDQtNC43LDguMy03LjIsMTIuM2MtMi4yLDMuNC00LjYsNi42LTcsOS45Yy0xLjcsMi4zLTYsMy04LjksMS4yYy02LjktNC4zLTEzLjktOC41LTIwLjYtMTMuMSYjMTA7JiM5O2MtOS43LTYuOC0xOS4zLTEzLjYtMjkuOC0xOS4yYy0xLjEtMC42LTIuMy0xLjQtMy4xLDAuM2MtMC4yLTAuMS0wLjQsMC0wLjUtMC4xYy0zLjMtNC4zLTgtNi4zLTEyLjktOC40JiMxMDsmIzk7Yy04LjEtMy4yLTE1LjYtNy41LTIyLjUtMTIuOWMtNy41LTYuMS0xMy44LTEzLjEtMTctMjIuOGMtMi43LTguMS02LjYtMTUuNy0xMS42LTIyLjZjLTAuOS0xLjItMi0yLjMtMy0zLjQmIzEwOyYjOTtjLTAuNC0wLjYtMC44LTEuMi0xLjItMS44YzEuNS0wLjQsMy0wLjcsNC41LTAuOWMwLjcsMCwxLjMsMC4yLDEuOCwwLjdjMyw0LjIsNi4zLDguMyw4LjksMTIuN2M0LjYsNy40LDkuNywxNC41LDE1LjIsMjEuMiYjMTA7JiM5O2M1LjgsNy4zLDEyLjYsMTMuNSwxOS43LDE5LjVjMi44LDIuNCw2LjQsNCw5LjgsNS43czcuMSwzLjEsMTAuNyw0LjdsLTEuNSwxLjRjMC43LDAuNCwxLjQsMC42LDIuMSwwLjljMiwwLjQsNC4xLDAuNyw2LjEsMSYjMTA7JiM5O2MtMC41LDAuNy0xLjUsMS41LTEuNCwyYzAuMywxLjEsMSwyLDEuOSwyLjdjNi4xLDQuMiwxMi4zLDguMywxOC42LDEyLjRjNS4yLDMuNSwxMSw2LjEsMTcuMSw3LjZjMy40LDAuOCw2LjksMS4xLDkuOS0wLjkmIzEwOyYjOTtjMi4xLTEuNSwzLjktMy40LDUuMy01LjVjMi40LTMuNywzLjctNy45LDQtMTIuM2MwLTIuNCwwLjItNC44LDAuMS03LjFjLTAuMi00LTAuNi04LDEuNS0xMS43YzAuNi0xLjEsMS40LTIuMSwyLjItMy4zJiMxMDsmIzk7YzEuMiwxLjMsMiwwLjksMywwYzEuMi0xLDIuNS0xLjksMy45LTIuN2wtMC41LTAuOGwtNCwyLjJsLTAuNC0xLjdjLTMuMSwxLjYtNC4zLDQuNi02LDcuMWMtMC40LDAuNS0wLjgsMS4xLTEuMSwxLjcmIzEwOyYjOTtjLTEuMywyLjgtMS4yLDUuNy0wLjcsOC42YzEsNi4zLTAuMSwxMi44LTMuMiwxOC4zYy0yLjEsMy45LTUuMiw2LjMtOS45LDYuMmMtNS4yLTAuMi0xMC4yLTEuNy0xNC42LTQuMyYjMTA7JiM5O2MtNi4zLTMuNS0xMi40LTcuNi0xOC40LTExLjVjLTItMS41LTQtMy4xLTUuOS00LjhjMC42LTAuNSwwLjgtMC43LDAuOS0wLjlsMS40LTEuNmMtMC42LTAuNC0xLjMtMC44LTItMWMtMi0wLjQtMy45LTAuNy02LjEtMS4xJiMxMDsmIzk7YzAuMS0wLjIsMC4zLTAuNCwwLjUtMC42YzAuNS0wLjQsMS0wLjgsMS41LTEuMmMtMC42LTAuNC0xLjItMC43LTEuOS0wLjljLTcuOC0xLjMtMTQuNi01LjEtMjEtOS41Yy00LjctMy4yLTguOC03LjQtMTMuMS0xMS4xJiMxMDsmIzk7Yy0wLjQtMC40LTAuNi0wLjktMC42LTEuNWMwLjItMS4zLDAuNi0yLjYsMS4xLTMuOGMxLTIuNCwyLjItNC44LDMuNC03LjJjMC40LTAuNiwwLjktMS4yLDEuNS0xLjZjMi41LTIuMiw1LjMtNC4zLDcuNi02LjgmIzEwOyYjOTtjMy41LTMuNSw2LjUtNy41LDEwLjktMTAuMWMyLjYtMS41LDUuMi0yLjgsNy44LTQuMmwzLjktMS42Yy0wLjIsMC42LTAuMywxLjItMC42LDEuOGMtMS4yLDIuMy0yLjYsNC41LTMuOCw2LjgmIzEwOyYjOTtjLTIuNSw0LjYtNSw5LjItNy40LDEzLjljLTEuNCwyLjctMyw1LjUtMy44LDguNGMtMS43LDYuNiwwLjEsMTEuNiw3LjksMTIuMWM0LjIsMC4zLDguNCwwLjQsMTIuNSwwLjVjNCwwLjEsNy45LDEuNSwxMSwzLjkmIzEwOyYjOTtjMi41LDEuOCw1LjEsMy4zLDcuOCw0LjdjMi45LDEuNyw2LjUsMS40LDkuMS0wLjdjMi43LTIuMSw0LTQuNSwyLjktNy45YzAtMC4xLDAuMS0wLjIsMC4yLTAuNWMxLjItMC4xLDIuNC0wLjIsMy43LTAuNCYjMTA7JiM5O2MzLjgtMC43LDUuNS0zLjUsNC41LTcuMWMtMC4yLTAuOS0wLjEtMS44LDAuMy0yLjdjMC45LTIuMiwwLjctNC4zLTEuMi01LjdjLTIuMi0xLjQtNC40LTIuNi02LjgtMy43Yy0wLjktMC41LTEuOC0xLjEtMi43LTEuNyYjMTA7JiM5O2wwLjItMC43Yy01LjgsMC4xLTExLDIuNS0xNiw1LjJsLTQuOSwyYy0wLjMsMC0wLjYsMC0wLjksMC4xYy0zLjcsMS42LTcuNiwxLjQtMTEuNSwxLjJjLTIuNC0wLjEtMi45LTAuOS0zLjEtMy4zJiMxMDsmIzk7Yy0wLjItMy4yLDAuNS02LjMsMi4xLTkuMWMyLjUtNS4xLDUuNy05LjgsOS42LTEzLjljMS41LTEuNiwyLjktMy4yLDQuMi00LjljMS42LTEuOSwzLjktMy4xLDYuNC0zLjJsMC4yLTAuNWwtNC41LTMuNWwyLjUtMC45JiMxMDsmIzk7Yy0wLjQtMC41LTEtMC44LTEuNi0wLjljLTQuOC0wLjktOS44LTAuNS0xNC40LDEuMmMtNC4xLDEuNS04LDMuNS0xMiw1LjFjLTkuNSwzLjktMTguNiw4LjUtMjYuMywxNS41Yy0wLjUsMC4zLTEuMSwwLjQtMS42LDAuMiYjMTA7JiM5O2MtMi40LTEuNS00LjctMy4yLTYuOC01LjFjLTYuMS02LjItMTEuNC0xMy4yLTE1LjctMjAuOGMtMC45LTEuNC0xLjEtMy4yLTAuNi00LjdjMC42LTIsMC44LTQuMSwxLjItNi4xYzAuMS0wLjMsMC4yLTAuOSwwLjQtMSYjMTA7JiM5O2MxLjUtMC41LDEtMS41LDAuOC0yLjVjLTEuMS00LjItMi4yLTguMy0zLjItMTIuNGM0LDEuNCw4LjMsMi45LDEyLjUsNC4zczguNywyLjcsMTMsNGwwLjktMC45Yy00LjctMS45LTkuNC0zLjgtMTQuMS01LjUmIzEwOyYjOTtjLTIuNy0xLTUuNi0xLjUtOC4zLTIuNGMtMC44LTAuMy0xLjUtMC45LTItMS43Yy0xLjQtMi0yLjctNC4xLTQtNi4yYy0wLjQtMC42LTAuNy0xLjEtMS4yLTEuOGMwLjMtMC4xLDAuNS0wLjEsMC44LTAuMSYjMTA7JiM5O2M3LDIuNSwxNCw1LDIxLDcuNmM0LjMsMS43LDguMyw0LjEsMTMuMiwzLjNjNC4yLTAuOCw4LjEtMi40LDExLjctNC42YzQuMy0xLjksOC43LTMuNywxMi44LTUuOWMxLjEtMC42LDEuNi0yLjQsMi40LTMuNiYjMTA7JiM5O2MxLjMtMy40LDAuNi02LjgtMC45LTkuOWMtMS4xLTIuMy0wLjYtNCwwLjgtNS45YzEuOS0yLjYsMy42LTUuNCw1LjYtOC42YzAuNSwwLjksMC44LDEuOCwxLjEsMi43YzAuNCwyLjUtMC4zLDUtMiw2LjkmIzEwOyYjOTtjLTAuMywwLjQtMC43LDAuOC0xLDEuMWMtMiwyLjMtMiwyLjMsMCw0LjZjMi44LDMuMSwyLjksNS4xLDAuNiw4LjZjLTAuMywwLjUtMC41LDEtMC44LDEuNWMxLjgsMC4xLDMuNC0xLDMuOS0yLjYmIzEwOyYjOTtjMS4xLTMuMy0wLjEtNi0yLjQtOC4zYy0xLjItMS4yLTEuNC0yLTAuMS0zLjJjMC45LTAuOCwxLjYtMS44LDIuMS0yLjljMC41LTEuNCwxLjMtMS40LDIuNi0xLjVjMy45LTAuMSw3LjgtMC41LDExLjctMC44JiMxMDsmIzk7YzAuNy0wLjEsMS41LTAuMSwyLjItMC4yYy0wLjEsMi40LTEuOSw0LjQtNC4zLDQuNmMtMi4zLDAtNC42LTAuMi02LjktMC41Yy0xLjgtMC4zLTMuMSwwLjEtMy4yLDEuOWMwLDIsMC4zLDQuMSwwLjgsNi4xJiMxMDsmIzk7YzAuMiwxLDAuOSwyLDEuMSwzYzAuNSwyLjIsMC4xLDQuMi0yLDUuMmMtNC40LDIuMi04LjgsNC41LTEzLjQsNi4yYy01LjUsMi4xLTEwLjgsNC40LTE1LjUsNy44Yy0wLjQsMC4zLTEuMSwwLjgtMS4xLDEuMiYjMTA7JiM5O2MwLjEsMS42LTEuMiwxLjctMS45LDIuNWMtMS45LDIuMS0zLjEsMC41LTQuNy0wLjFjLTAuMi0wLjEtMC4zLTAuMi0wLjUtMC4zYy0wLjMsMC0wLjUsMC0wLjgsMGwxLjcsNGwtNS4xLTIuNWwtMC45LDAuOWw3LjgsNCYjMTA7JiM5O2wtMS00LjFjMi4zLDAuNyw0LjUsMS40LDYuOS0wLjFsLTIuNi0wLjlsNS41LTIuMmwtMy4yLTEuM2M0LTIuOSw4LjQtNS4zLDEzLjEtNy4xYzQuNS0xLjcsOS0zLjQsMTMuMy01LjUmIzEwOyYjOTtjNS4zLTIuNiw2LjctNi4xLDQuNi0xMS45Yy0wLjQtMS4xLTAuOC0yLjMtMS0zLjRjLTAuNC0yLjMsMC4zLTIuNiwyLjUtMi4xYzIuMywwLjYsNC43LDAuNyw3LjEsMC41YzMuMy0wLjQsNS43LTQsNS4xLTcuNCYjMTA7JiM5O2MtMC42LDAtMS4zLDAtMiwwYy00LjQsMC4xLTguOSwwLjMtMTMuMywwLjNjLTAuNS0wLjEtMS0wLjItMS41LTAuNWMwLjItMC41LDAuNS0xLDAuOS0xLjVjMC4zLTAuMywwLjctMC41LDEuMS0wLjcmIzEwOyYjOTtjNC45LTIuNiw4LTYuNiw4LjMtMTIuM2MwLjEtMS0wLjItMi42LTAuOS0zcy0yLjEsMC4xLTMuMiwwLjNjLTAuNSwwLjItMC45LDAuNS0xLjIsMC45Yy0yLDIuMy00LDQuNS01LjgsN2MtMi40LDMuMy01LjIsNi40LTguMyw5JiMxMDsmIzk7Yy0wLjMtMC45LTAuNS0xLjgtMC42LTIuN2MtMC4zLTMuNiwxLjQtNi4yLDMuOC04LjdjMS4zLTEuMywyLjQtMi44LDMuMS00LjRjMC40LTEuMSwwLjMtMi40LTAuMy0zLjVjLTAuNS0wLjYtMi4zLTAuNC0zLjMsMCYjMTA7JiM5O2MtNC4xLDEuNi03LjEsNC44LTEwLDcuOWMtMS43LDEuNy0yLjIsNC4zLTEuNCw2LjZjMSwzLjgsMi41LDcuNCw0LjYsMTAuOGMyLjYsMy45LDQuOCw4LjEsNC42LDEzYy0wLjEsMS43LTEuMiwzLjMtMi44LDMuOSYjMTA7JiM5O2MtMS4xLDAuNi0yLjIsMS4zLTMuMywxLjljLTMsMS40LTYuMSwyLjgtOS4xLDQuMXMtNi4zLDIuOC05LjUsMy44Yy0xLjksMC42LTMuOSwwLjgtNS45LDAuNGMtMy0wLjktNi0yLTguOC0zLjQmIzEwOyYjOTtjLTYuNi0yLjctMTMtNi4xLTIwLjEtNy41bC01LjEtMWMwLjItMC44LDAuMy0xLjMsMC40LTEuOWwtMC41LTAuM2MtMC40LDAuNi0wLjgsMS4yLTEsMS44Yy0wLjEsMC40LDAuNCwwLjksMC43LDEuMyYjMTA7JiM5O2MxLjUsMS43LDMuMSwzLjMsNC42LDVjMC40LDAuNiwwLjcsMS4zLDAuOSwybC02LjQtMy40YzIsMi45LDQuMSw1LjIsNS41LDcuOWMxLjUsMi43LDIuNiw1LjYsMy4yLDguNmwtMC40LDAuMmwtMi44LTMuOCYjMTA7JiM5O2MwLjMsMS4xLDAuNiwyLjIsMSwzLjNjMC45LDMuNiwxLDcuNCwwLjIsMTEuMWMtMC42LDEuOC0wLjQsMy44LDAuNCw1LjVjMC45LDIsMS45LDQsMy4xLDUuOWM2LjEsOC44LDExLjksMTcuOCwyMS4zLDIzLjcmIzEwOyYjOTtjMy40LDEuOSw0LjksNS45LDMuOCw5LjZjLTEsMy43LTIuNyw3LjItNC4xLDExYy0wLjQtMC4zLTAuOC0wLjctMS4yLTEuMWMtMi0yLjItMy45LTQuNS01LjctNi45Yy00LTUuOC03LjYtMTEuOC0xMS42LTE3LjUmIzEwOyYjOTtjLTMuMi00LjYtNi43LTktMTAuMi0xMy40Yy0wLjgtMS0xLjQtMS42LTAuOC0zYzAuMy0wLjgsMC4yLTEuNi0wLjItMi4zYy0xLjMtMS4yLTAuOS0yLjItMC4xLTMuNWMxLTEuOCwwLjUtMy40LTEuNC00LjgmIzEwOyYjOTtjLTEuNS0xLjItMi43LTAuMy0zLjksMC42Yy0wLjMsMC4yLTAuNSwwLjctMC44LDAuN2MtMC42LDAuMS0xLjcsMC40LTEuOSwwLjFjLTAuNy0xLjEtMS4zLTIuMi0xLjgtMy40YzAuNC0wLjIsMC44LTAuNCwxLjItMC41JiMxMDsmIzk7YzAuOS0wLjEsMS45LTAuNCwyLjgtMC42YzIuNi0xLjEsMi44LTMuNywwLjctNS40Yy0xLjktMS41LTQtMS40LTYuMi0xLjFjLTEuNywwLjItMi40LTAuNC0zLTEuOGMtMS42LTQtMy4zLTcuOS00LjktMTEuNiYjMTA7JiM5O2MtMC40LDItMC45LDQuMi0xLjMsNi40Yy0xLjktMy4zLTEtNi44LTAuNC0xMGMwLjgtMy44LDAuNS03LjQsMC4zLTExLjFjLTAuMS0xLjItMC40LTIuNC0wLjktMy41Yy0zLTYtNy41LTEwLjEtMTQuNC0xMS4xJiMxMDsmIzk7Yy01LjEtMC44LTEwLjMtMS40LTE1LjQtMi4yYy0xLjItMC4yLTIuNS0wLjUtNC0wLjhjMC41LTAuNSwwLjUtMC43LDAuNy0wLjhjMC4zLTAuMiwwLjYtMC4zLDAuOS0wLjRjMy43LTAuNiw3LjQtMS41LDExLjEtMC4zJiMxMDsmIzk7YzQuNSwxLjQsOC40LDAuMiwxMi4zLTJjMS4zLTAuNywyLjctMS4xLDQuMS0xLjJjNC45LTAuNywxMCwwLjYsMTQsMy41YzAuNywwLjQsMS41LDAuOCwyLjMsMS4xYy0xLjYtMS43LTMuNS0zLjItNS40LTQuNSYjMTA7JiM5O2MtMC44LTAuNi0xLjYtMC45LTIuNi0xLjFjLTUtMC44LTkuOS0wLjctMTQuNCwyLjJjLTIuNCwxLjYtNS40LDIuMS04LjIsMS4yYy04LjItMi4xLTE1LjktMC40LTIzLjMsMy40Yy00LjEsMi4xLTguMiw0LjMtMTIuNCw2LjEmIzEwOyYjOTtjLTEuNSwwLjYtMy40LDAuNC01LjEsMC4zYy0xLjMsMC0xLjktMC42LTAuOS0yYzAuNi0wLjksMS4xLTEuOCwxLjUtMi44YzEtMi4yLDAuMi0zLjctMi4xLTQuM2MtMS43LTAuNS0xLjgtMS0wLjUtMi4zJiMxMDsmIzk7YzQuNi00LjMsMTAuNC00LjgsMTYuMy00LjRjMy4yLDAuMiw2LjQsMC44LDkuOSwxLjJsLTEuNS0xLjFsMC4xLTAuNWgzLjRjMS4xLDAsMi4yLDAsMy40LDBjMC45LTAuMiwxLjgtMC40LDIuNy0wLjQmIzEwOyYjOTtjMS44LDAuMywzLjUsMC45LDUuNiwxLjRsLTIuOC0yLjFsMC4yLTAuN2MzLjgsMSw3LjctMS40LDExLjUsMC44YzAuNywwLjMsMS40LDAuNSwyLjIsMC40YzIuNS0wLjIsNC45LTAuNCw3LjMtMC43JiMxMDsmIzk7YzQuMi0wLjYsOC41LTEuMywxMi43LTJjMy45LTAuNyw3LjgtMS45LDExLjgtMC4yYzAuNywwLjQsMS4zLDAuOSwxLjgsMS42bDEuNS0wLjFsMC4xLTAuNWMtMC45LTAuNi0xLjctMS4zLTIuNS0xLjkmIzEwOyYjOTtjLTIuNy0xLjctNS44LTEuNi04LjktMS40Yy0xLjEsMC4xLTEuNi0wLjEtMS44LTEuM2MtMC4zLTEuMy0wLjgtMi41LTEuNC0zLjdjLTAuNy0xLjMtMS40LTIuNy0yLTQuMWMtMC4zLTAuOC0wLjEtMi42LDAuMy0yLjcmIzEwOyYjOTtjMi40LTAuNywxLjMtMi4xLDEtMy40Yy0wLjItMC42LTAuMi0xLjMsMC0xLjljMi40LTUuNCw0LjYtMTAuOCw3LjMtMTYuMWMyLTQuMSw0LjUtNy45LDYuOC0xMS44YzAuMy0wLjYsMC40LTEuMiwwLjUtMS44bC0wLjUtMC4zJiMxMDsmIzk7bC00LjQsMi4zYzAuMS0xLjgsMC4yLTMuMiwwLjMtNC43YzAuMy01LjQtMC44LTEwLjctMS44LTE2Yy0xLjctOC42LTMuNi0xNy4yLTUuNS0yNS44Yy0xLTQuNS0yLjctOC45LTIuNC0xMy42JiMxMDsmIzk7YzAtMS43LTAuMS0zLjMtMC40LTVjLTEsMS4xLTEuOCwyLjQtMi41LDMuN2MtMi4yLDMuOC00LjMsNy42LTQuOCwxMmMwLDAuMy0wLjMsMC45LTAuNSwxYy0yLjIsMC4xLTEuNSwxLjctMS43LDIuOSYjMTA7JiM5O2MtMC42LDQuMy0xLjEsOC43LTEuNiwxM2wtMC42LDAuMWMtMC45LTEuOS0xLjctMy45LTIuNi01LjhjLTIsMTAuNCwyLjQsMjAuMSwzLDMwLjJjLTAuOS0xLjItMS42LTIuNS0yLjQtMy44JiMxMDsmIzk7Yy0wLjQtMC40LTAuOC0wLjgtMS4zLTEuMWMtMC4yLDAuNi0wLjMsMS4yLTAuMywxLjljMC4xLDEuMiwwLjUsMi41LDAuNiwzLjdjMC45LDYuNiwyLjIsMTMsNS42LDE4LjhjMC4yLDAuNCwwLjMsMC44LDAuMiwxLjImIzEwOyYjOTtjMCwxLTAuMiwyLTAuMiwzYzAuMSwwLjgsMC4yLDEuNSwwLjMsMi4zbC0wLjQsMC4xbC0xMi0zMC4yaC0wLjZjLTAuMiwwLjUtMC40LDEtMC43LDEuNHMtMC41LDAuOS0wLjgsMS4zYy0wLjQtMC4zLTAuNy0wLjYtMS0xJiMxMDsmIzk7Yy0xLjQtMS44LTIuOC0zLjctNC4zLTUuNWMtMC42LTAuNS0xLjMtMS0yLTEuM3Y1LjVjLTAuNi0wLjItMC45LTAuMy0xLjEtMC40Yy0yLjgtMS4xLTUuNS0yLjUtOC40LTMuM2MtMy4zLTEtNi44LTEuNS0xMC4yLTIuMyYjMTA7JiM5O2MtNy4xLTEuNy0xNC4zLTMuNS0yMS40LTUuMmMtNS4yLTEuMy0xMC41LTIuNC0xNS4zLTVjLTAuNC0wLjItMS40LTAuMi0xLjUsMGMtMC4zLDAuNi0wLjMsMS4yLTAuMSwxLjhjMS45LDMuNSwzLjYsNy4yLDcuMiw5LjEmIzEwOyYjOTtjNC45LDIuNiwxMCw0LjgsMTUsNy4ybDQuNSwxLjNsLTAuMywxbC01LjMtMS45bC00LTEuMWwtMC4zLDAuNGMwLjQsMC41LDAuOCwwLjksMS4yLDEuM2MwLjksMC43LDEuOCwxLjQsMi42LDIuMSYjMTA7JiM5O2MzLjMsMi42LDYuNiw1LjIsMTAuOSw2LjJjMC41LDAuMSwxLjMsMC4zLDEuNSwwLjdjMC44LDEuNywyLjQsMS42LDMuOCwyYzAuNSwwLjIsMSwwLjIsMS45LDAuNGMtMC42LDAuNi0wLjksMS0xLjIsMS4xJiMxMDsmIzk7Yy0yLjMsMC44LTQuNywxLjUtNywyLjNjLTAuNSwwLjItMC45LDAuNS0xLjMsMC44YzAuNCwwLjMsMC44LDAuNiwxLjMsMC43YzEuNywwLjIsMy40LDAuNCw1LjEsMC41bDE0LDEuNmMwLjYsMC4xLDEuMiwwLjIsMiwwLjMmIzEwOyYjOTtjLTAuNCwwLjUtMC42LDAuNi0wLjcsMC43Yy0wLjYsMC44LTEuMSwxLjUtMS43LDIuM2MwLjksMC4yLDEuNywwLjQsMi42LDAuNWMzLjcsMC4yLDcuNCwwLjMsMTEuMSwwLjRjMC4yLDAsMC40LTAuMywwLjYtMC41JiMxMDsmIzk7bC05LjctMy4xbDMuMi0xLjdjLTAuNS0wLjQtMC42LTAuNS0wLjctMC41Yy01LjEtMC4yLTEwLjItMC4zLTE1LjMtMC41bC02LjctMS4yYzIuNy0yLjIsNS4yLTMuNiw4LjYtMi45bDAuMS0wLjlsLTUuMS0xLjcmIzEwOyYjOTtjMC4xLTAuNSwwLjItMC45LDAuNS0xLjdjLTUuNy0xLjEtMTEuMS0zLjItMTYuMS02LjJjMy4xLDAuNCw2LjEsMS42LDkuMywwLjZjLTAuMy0xLjctMS42LTIuMi0yLjktMi43Yy01LjMtMi4yLTEwLjYtNC40LTE1LjktNi43JiMxMDsmIzk7Yy0zLjktMS44LTcuNC00LjQtMTAuMi03LjdjLTAuNC0wLjYtMC42LTEuMy0wLjgtMS45YzMuMSwxLDUuOSwxLjksOC42LDIuN2MzLDAuOSw2LDEuOCw5LjEsMi41YzUuNCwxLjMsMTAuOCwyLjIsMTYuMSwzLjYmIzEwOyYjOTtjMy40LDAuOCw2LjcsMiw5LjcsMy42YzMuOCwyLjMsNyw1LjMsMTAuNSw4LjFjMC40LDAuNCwwLjUsMC45LDAuNCwxLjRsLTQuNy0yLjFsLTAuMywwLjVjMy4xLDQuMSw1LDkuNCwxMS45LDkuMmwtMC40LDAuNiYjMTA7JiM5O2MtMC4zLDAuMi0wLjUsMC40LTAuOCwwLjZjLTAuNCwwLjItMC44LDAuMy0xLjIsMC40YzAuMywwLjMsMC43LDAuNiwxLjEsMC45YzIuMywxLjIsNC43LDIuNCw3LDMuN2MyLjcsMS41LDQsNC4zLDUuNSw2LjgmIzEwOyYjOTtjMC4xLDAuMi0wLjIsMC43LTAuMywxLjFjLTAuNC0wLjItMS0wLjItMS4yLTAuNWMtMC4zLTAuNi0wLjUtMS4zLTAuNy0yYy0wLjgtMi41LTIuNy0zLjYtNS00LjFjLTEtMC4yLTIuMi0wLjMtMi41LDEuMyYjMTA7JiM5O2MwLjEsMC43LDAuMiwxLjMsMC4zLDIuMWMtMy41LDAuNi02LDIuMy03LDYuMmwzLjYtMS4xYzAuNCwzLjEtMi45LDUuNS0xLjQsOS4xYzAuNi0wLjcsMC44LTEuMywxLjItMS41YzAuOC0wLjIsMS41LTAuNCwyLjMtMC41JiMxMDsmIzk7YzAsMC44LTAuMSwxLjYtMC40LDIuNGMtMC44LDEtMS42LDEuOS0yLjUsMi44Yy0yLjUsMi44LTQuOCw1LjgtNC41LDkuOWMwLjEsMi4yLTAuNiwzLTIuOCwyLjZjLTEuNC0wLjQtMi42LTEtMy43LTEuOSYjMTA7JiM5O2MtMC42LTAuNi0xLjItMS4yLTEuNi0xLjljLTAuNCwyLjMtMiwyLjQtMy41LDIuN2MtMS4yLDAuMy0yLjMsMC43LTMuNCwxLjFjLTAuNSwwLjMtMC45LDAuNi0xLjMsMWwyLjIsMS4xJiMxMDsmIzk7Yy0xLjMsMS4yLTEuNywzLjItNC4xLDIuNGMtNi4zLTIuMi0xMi4zLTAuNy0xNy45LDIuM2MtMS42LDAuOS0yLjksMi4yLTMuOSwzLjhjLTAuNywxLjEtMS43LDEuOS0zLDIuM2MtMi4xLDAuNy00LjQsMS4zLTUuOSwyLjcmIzEwOyYjOTtjLTMuOSwzLjUtNC42LDguMS0zLjQsMTMuMWMwLjQsMS43LDEuMywzLjcsMy4zLDMuN2MxLjUtMC4xLDIuOS0wLjcsMy45LTEuOGMyLjItMi40LDQuMy01LDYuMi03LjZjMC44LTEuMSwxLjQtMSwyLjYtMC42JiMxMDsmIzk7YzEuOCwwLjYsNCwxLjMsNS42LDAuOGMyLjktMC45LDUuNi0yLjIsOC4xLTMuOWM0LjUtMy4xLDktNSwxNC40LTIuOGMwLjcsMC4yLDEuNSwwLjQsMi4yLDAuNGMzLjcsMC41LDcuNSwwLjgsMTEuMSwxLjQmIzEwOyYjOTtjNC41LDAuOCw4LjcsMi45LDEyLjEsNmMxLjIsMS4xLDEuNiwyLjksMC45LDQuNGMtMC41LDEuNS0yLjEsMi4zLTMuNiwxLjhjLTEuNy0wLjUtMy40LTEuMy01LTIuMWMtMC42LTAuMy0xLjEtMC43LTEuNy0xLjImIzEwOyYjOTtsLTAuNCwwLjRjMC45LDEsMS43LDIsMi42LDIuOWMwLjgsMC44LDAuOCwxLjItMC4yLDEuN2MtMC41LDAuMi0xLjEsMC40LTEuNiwwLjZjLTIuMiwwLjUtNC41LDEtNi43LDEuNGwtMC4xLDAuNGwzLjUsMC42bC00LjgsNi43JiMxMDsmIzk7bDAuNiwwLjZsMi41LTEuNGwwLjUsMC41Yy0wLjgsMS4zLTEuNiwyLjYtMi41LDMuOGMtMS41LDItMy4yLDMuOC00LjYsNS44Yy01LDYuOC0xMC45LDEyLjgtMTguMywxNy4xYy0xLjMsMC44LTIuNiwxLjgtMy43LDIuOSYjMTA7JiM5O2MtMC40LDAuNC0wLjUsMS4yLTAuNywxLjhjMC41LDAuMywxLjEsMC40LDEuNywwLjVjMS4yLTAuMSwxLjMsMC4zLDEuMSwxLjRjLTAuMywxLjYtMC4yLDMuMSwwLDQuN2MwLjIsMSwxLjMsMS45LDIuMiwzLjEmIzEwOyYjOTtjMC40LTEuMiwwLjYtMS44LDAuOC0yLjRsMy42LDQuM2wwLjUtMC40TDI4NiwyMDdjMC43LDAuMSwxLjMsMC40LDEuOCwwLjljMy40LDIuOSw2LjcsNiwxMC4xLDguOWM0LjUsNCwxMC40LDUuOSwxNi4zLDUuMyYjMTA7JiM5O2MyLjMtMC4zLDQuNS0wLjgsNi42LTEuNWMyLjMtMC43LDQuNC0xLjcsNi43LTIuNmMwLjYtMC4zLDEuMy0wLjQsMi0wLjNjMi40LDAuNCw0LjcsMS4xLDcsMS4yYzEuNSwwLDMtMC4zLDQuNC0wLjgmIzEwOyYjOTtjMS4yLTAuNSwxLjUtMS4zLDAuMy0yLjRjLTEuOS0xLjYtMy41LTMuNS01LjItNS4zYzIuOC0yLjYsMi41LTIuNCw0LjYsMC4xczQsNS40LDUuOCw4LjFjMS40LDEuOSwyLjYsMy45LDMuNyw2JiMxMDsmIzk7YzEuOSw0LjYsMy40LDkuMiw1LDEzLjljMC43LDIuMSwwLjUsMi4zLTEuNywxLjljLTUuNi0xLjItMTEuNS0wLjctMTYuOCwxLjNjLTAuNywwLjMtMS40LDAuNy0yLjEsMS4xbDAuMiwwLjZsNS42LDAuNSYjMTA7JiM5O2MwLDAuMiwwLDAuMywwLDAuNWMtMC41LDAuMi0xLjEsMC40LTEuNywwLjZjLTUuNywxLjEtMTEsMy0xNS42LDYuNWMtMiwxLjUtMy44LDMuMS01LjYsNC44Yy0wLjQsMC40LTAuNSwxLjEtMC43LDEuNyYjMTA7JiM5O2MwLjUsMC4yLDEuMSwwLjMsMS43LDAuNGMwLjgtMC4xLDEuNi0wLjMsMi40LTAuNmMzLTAuOSw2LTEuOCw5LTIuN2MtMSwxLjEtMi4yLDItMy41LDIuOGMtMC40LDAuMy0wLjUsMC45LTAuNywxLjMmIzEwOyYjOTtjMC41LDAuMiwxLDAuMywxLjUsMC4zYzEtMC4yLDEuOS0wLjYsMy40LTEuMWMtMSwxLjQtMS45LDMtMi43LDQuNWMtMS41LDMuNi0yLjUsNy41LTIuOSwxMS40Yy0wLjQsMy42LTEuNSw3LjItMi4yLDEwLjgmIzEwOyYjOTtjMCwwLjksMCwxLjgsMC4yLDIuNmwyLjQtMC42YzAuMSwwLDAuMi0wLjEsMC4zLTAuMmM0LTMsNy42LTYuNiwxMC41LTEwLjZjMC4zLTAuNCwwLjYtMC44LDEtMS4yYzAuMSwyLjktMi42LDUuMS0xLjYsOC4zJiMxMDsmIzk7YzIuOC0yLjUsNS40LTUuMSw3LjgtNy45YzIuNS0yLjcsNC43LTUuNiw2LjgtOC42YzItMywzLjUtNi4zLDUuMy05LjVsMS42LDEuOWMwLjUtMC42LDAuOS0xLjMsMS40LTEuOWMwLjMtMC41LDAuNC0xLjIsMC43LTEuOCYjMTA7JiM5O2MwLjItMC40LDAuNS0wLjksMC44LTEuM2MwLjcsMC43LDEuMiwxLjIsMS43LDEuOGwwLjgtMi4yYzAtMC4xLDAtMC4xLDAtMC4yYzAuMy0xLjUsMC44LTEuNiwyLTAuNmMxLjgsMS42LDMuNiwzLjIsNS40LDQuOCYjMTA7JiM5O2M2LDUsMTIuMiw5LjYsMTkuMywxM2M0LjIsMiw4LjQsMy44LDEyLjcsNS42YzIuNSwwLjksNC43LDIuNiw2LjMsNC43YzAuNywxLDEuNSwxLjgsMi41LDNjMC4zLTEuMywwLjUtMi4yLDAuOC0zLjQmIzEwOyYjOTtjMy45LDIuMiw3LjYsNC4xLDExLjEsNi40YzcuMSw0LjgsMTQsMTAsMjEuMiwxNC44YzYuMiw0LjIsMTIuNiw4LjIsMTksMTIuMmMyLjgsMS43LDYsMi4yLDguOCwwLjFjMi4yLTEuOCw0LjEtMy45LDUuNy02LjMmIzEwOyYjOTtjMi45LTQuNCw1LjUtOSw4LTEzLjZjMi4zLTQuNiw1LjYtOC42LDkuNy0xMS43YzItMS41LDMuNi0zLjMsNC45LTUuNEM1MDEuOCwyNzMuOCw1MDAuOSwyNzAuNiw0OTcuOSwyNjguM3ogTTQxMS45LDI3MS44JiMxMDsmIzk7QzQxMS45LDI3MS43LDQxMS45LDI3MS43LDQxMS45LDI3MS44eiBNNDE5LjcsMTMxLjhjMi4zLTMsNC43LTUuOSw3LjEtOC44YzAuNC0wLjQsMC44LTAuOCwxLjQtMWMwLjUtMC4yLDEtMC4zLDEuNi0wLjImIzEwOyYjOTtjMC4zLDAuMSwwLjMsMC45LDAuNCwxYy0wLjQsNi0zLjcsOS44LTgsMTIuOWMtMC4zLDAuMi0wLjYsMC4zLTAuOSwwLjJDNDIwLjYsMTM1LjcsNDE5LjMsMTMyLjIsNDE5LjcsMTMxLjhMNDE5LjcsMTMxLjh6JiMxMDsmIzk7IE00MDQuNSwxMzAuMmMtMC4xLTEuMywxLjItMywyLjMtNC4xYzIuMS0yLDQuMy0zLjksNi42LTUuNmMxLTAuNywyLjQtMC45LDMuNi0xLjNsMC41LDAuNmMtMC42LDEuMi0xLjIsMi4zLTEuOSwzLjQmIzEwOyYjOTtjLTAuOCwxLTEuNywxLjktMi42LDIuOGMtMi44LDIuNy0zLjgsNi43LTIuOCwxMC41YzAuNSwyLjQsMC45LDIuNSwzLjYsMS41Yy0xLjUsMi4xLTIuNywzLjktNC4xLDUuOCYjMTA7JiM5O0M0MDcsMTM5LjUsNDA0LjksMTM1LjEsNDA0LjUsMTMwLjJMNDA0LjUsMTMwLjJ6IE0zNTEuNSwxNjguN2wwLjYtMC44bDIuMywxLjZsLTAuNiwwLjhMMzUxLjUsMTY4Ljd6IE00MjAsMjQzLjgmIzEwOyYjOTtjLTAuOSwwLjEtMS45LDAuMS0yLjgsMEM0MTguMSwyNDMuOSw0MTkuMSwyNDMuOSw0MjAsMjQzLjh6IE0zODEuNSwyMjYuNmMtMC4yLTAuNS0wLjItMS4xLDAuMS0xLjZjMC44LTAuOSwxLjctMS43LDIuNy0yLjMmIzEwOyYjOTtjNS0zLjEsOS45LTYuNCwxNS4xLTkuMWM1LjgtMy4xLDExLjctNS45LDE3LjgtOC40YzMuMi0xLjMsNi44LTEuNSwxMC4yLTIuMWMwLjQtMC4xLDAuNy0wLjEsMS4xLDAuMWMxLjEsMS4xLDIuMiwyLjMsMy40LDMuNSYjMTA7JiM5O2MtMi4xLDEuNS00LDMuMi01LjksNWMtNC43LDUuMS05LjUsMTAuMi0xMi40LDE2LjdjLTEuNCwzLjItMi43LDYuNi0yLjEsMTAuM2MwLjQsMS40LDAuOSwyLjgsMS41LDQuMmMwLjksMC40LDEuOCwwLjcsMi44LDAuOSYjMTA7JiM5O2MtMS0wLjItMS45LTAuNS0yLjgtMC45YzAuNywwLjUsMS42LDAuOSwyLjQsMS4yYzMuNywwLjgsNy41LDAuMywxMC45LTEuMmwzLjgtMS42bDUtMS44bDAsMGMzLjctMS4zLDcuNC0yLjYsMTEuMS0zLjkmIzEwOyYjOTtjMC4zLTAuMSwwLjgtMC4xLDAuOSwwYzAuOCwxLjYsMi40LDEuMSwzLjcsMS40YzIuNywwLjYsNS4xLDEuOSw3LjEsMy44YzEuMSwxLDEuNCwyLjUsMC43LDMuOGMtMS40LTAuOS0yLjctMS43LTQtMi41JiMxMDsmIzk7Yy0xLjUtMC45LTMuNi0wLjgtNC41LTIuOGMtMC4xLTAuMy0wLjktMC40LTEuNC0wLjNjLTEuOCwwLjEtMy41LDAuMy01LjMsMC41Yy0yLDAuMS0zLjksMC44LTUuNSwyYzAuMiwwLjIsMC41LDAuMywwLjgsMC4zJiMxMDsmIzk7YzEuOC0wLjQsMy43LTAuOCw1LjUtMS4ybC0xLjktMC4xbDEuOSwwLjFjNS0wLjMsMTEuOCwzLjUsMTMuOSw3LjdjMS4xLDIuMywwLjYsMy45LTEuOCw0LjZjLTEuOSwwLjQtMy45LDAuNi01LjgsMC41JiMxMDsmIzk7Yy0wLjUsMC0xLjItMC43LTEuNi0xLjJjLTAuNi0wLjktMC45LTEuOS0xLjYtMi43Yy0wLjgtMC43LTEuNi0xLjQtMi41LTEuOWMwLjItMS4yLDMtMC4yLDItMi40Yy0zLjYtMS4zLTctMC41LTEwLjUsMC42JiMxMDsmIzk7YzAsMC4yLDAsMC4zLDAsMC41YzEsMC4xLDIsMC4xLDMsMC4yYzAuNSwwLjEsMSwwLjMsMS40LDAuNmMxLDAuNiwyLDEuMywzLDEuOWMxLjQsMC43LDIuOCwxLjQsMy4xLDMuMmMwLjEsMC44LDEuMSwxLjQsMS43LDImIzEwOyYjOTtjMS44LDIuMSwyLjMsNC44LDEuMiw2LjRjLTEuNiwyLjQtNC45LDQtNy40LDMuMWMtMi4zLTAuOS00LjUtMi02LjYtMy4yYy0yLjMtMS4zLTQuNC0yLjctNi42LTQuMWMtMy44LTIuNC04LjItMi41LTEyLjQtMy4xJiMxMDsmIzk7Yy00LjEtMC41LTguMi0wLjktMTIuMi0xLjdjLTIuNS0wLjUtMy4xLTEuNS0zLTQuMWMwLjEtMy44LDEuNi03LjEsMy40LTEwLjRjMi43LTQuOCw1LjUtOS42LDguMy0xNC41YzEuNC0yLjQsMy4xLTQuNiwzLjItNy42JiMxMDsmIzk7YzAuMS0wLjQsMC4xLTAuOSwwLjEtMS4zYy0wLjMtMS42LDAuNi0yLDEuOS0yLjNjMC44LTAuMSwxLjYtMC40LDIuMy0wLjhjLTMuMy0wLjUtNi4zLDAuNy05LjMsMS45bDAsMGMtMS43LDAuNy0zLjQsMS4yLTUuMSwyJiMxMDsmIzk7Yy01LjcsMi45LTEwLjEsNy4yLTE0LjMsMTJjLTIsMi4zLTQuNCw0LjQtNi40LDYuNEMzODQsMjMwLjcsMzgyLjcsMjI4LjcsMzgxLjUsMjI2LjZMMzgxLjUsMjI2LjZ6IE0zMjAuMiwxMjcuMiYjMTA7JiM5O2MtMS42LDEuMy00LjMsMS40LTYuNiwwLjZjMC40LTIuMiwxLTQuMi0wLjYtNi4xYy0wLjItMC41LTAuMS0xLjEsMC4yLTEuNWMxLjUtMS45LDMuMS0zLjYsNC45LTUuMmMxLjktMS40LDQtMi43LDYuMS0zLjkmIzEwOyYjOTtjMS0wLjYsMS42LTAuMywxLjksMC45QzMyNy44LDExOSwzMjYuNCwxMjIuNSwzMjAuMiwxMjcuMkwzMjAuMiwxMjcuMnogTTMzNC41LDEyNC4yYzAsMC40LTAuMiwwLjgtMC42LDFjLTMuMSwwLjYtNi4yLDEuMi05LjMsMS43JiMxMDsmIzk7YzAsMC0wLjEtMC4xLTAuMy0wLjNsMy4zLTRjMC4xLDEsMC4yLDEuNiwwLjQsMi42YzMtMC43LDIuMi00LjMsNC43LTUuNUMzMzMuMywxMjEuMSwzMzMuOSwxMjIuNiwzMzQuNSwxMjQuMkwzMzQuNSwxMjQuMnomIzEwOyYjOTsgTTMzOS4xLDc0LjdjLTAuNC05LjQtMC45LTE4LjctMS40LTI4LjFjMC0wLjQsMC4xLTAuOCwwLjQtMWMwLjQsMS41LDAuOSwzLDEuMyw0LjVjMi42LDksMy44LDE4LjQsMy42LDI3LjgmIzEwOyYjOTtjMC4xLDEuNCwwLjIsMi43LDAuNSw0LjFsMi40LTEuNmwwLjQsMC4zYy02LDcuNy0xMC43LDE2LjEtMTIuNiwyNS44bC0wLjgtMC4xYzAtMSwwLTEuOSwwLjEtMi45YzAuNS0zLjgsMS4xLTcuNiwxLjctMTEuNCYjMTA7JiM5O2MwLjEtMC44LDAuMS0xLjYsMC4xLTIuNGMwLjQsMC4yLDAuNSwwLjIsMC42LDAuM2wxLjIsMS42YzAuNC0wLjcsMC43LTEuNSwwLjgtMi4zYy0wLjItNC0wLjUtNy45LTAuOC0xMS45JiMxMDsmIzk7QzMzOC45LDc3LjUsMzM5LjIsNzcuMywzMzkuMSw3NC43TDMzOS4xLDc0Ljd6IE0zMjIuNCw3MS43bDQsMS43Yy0xLjUtNy42LTIuOS0xNS4zLTQuNC0yMi45bDAuNC0wLjJjMC4yLDAuMiwwLjUsMC40LDAuOCwwLjcmIzEwOyYjOTtjMS4xLDEuMSwxLjcsMC41LDItMC43czAuMi0yLjMsMC4zLTMuNGMwLjItMS45LDAuNC0zLjksMC43LTUuOGMwLTAuMywwLjMtMC42LDAuNy0xLjJjMC41LDEuMiwwLjgsMi4xLDEuMSwzaDAuNyYjMTA7JiM5O2MtMC44LTguOC0wLjEtMTcuMSw1LjYtMjQuNWwyLjksNTQuOGwtMC44LDAuMWwtMS4zLTIuMmMtMC4yLDAuNC0wLjQsMC45LTAuNSwxLjRjMC4yLDMuNCwwLjQsNi44LDAuNiwxMC4yYzAuMSwxLjIsMCwyLjQsMCwzLjYmIzEwOyYjOTtjMCwwLjMsMCwwLjgtMC4xLDAuOWMtMi43LDIuNi0xLjgsNi4zLTIuOSw5LjRjLTAuMywxLjEtMC42LDIuMy0wLjgsMy41Yy0yLjYtMC42LTMuMi0yLjgtNC4xLTQuN2MtMC4xLTAuMywwLTAuNiwwLjItMC44JiMxMDsmIzk7YzAuMy0wLjEsMC43LDAsMSwwLjFjMC42LDAuNCwxLjMsMC43LDIsMC45QzMyNi40LDg4LjMsMzI0LjEsODAuNSwzMjIuNCw3MS43TDMyMi40LDcxLjd6IE0zMjAuNCw5My42Yy0yLjEtNC41LTYuMy02LjUtMTAuNi04LjMmIzEwOyYjOTtjMC4xLTAuMiwwLjItMC41LDAuNC0wLjdjMC40LTAuNywwLjktMS4zLDEuMy0xLjljLTAuOC0wLjMtMS42LTAuNy0yLjUtMWMtMi4yLTAuOC00LjUtMS41LTYuNy0yLjNsMC4xLTAuN2MwLjYsMCwxLjIsMCwxLjksMCYjMTA7JiM5O2MwLjgtMC4xLDEuNS0wLjMsMi4yLTAuNGMtMC4yLTAuNy0wLjYtMS4zLTEtMS44Yy0zLjgtMy42LTcuNy03LjEtMTEuNS0xMC42YzAuMy0wLjEsMC42LTAuMSwwLjksMGMyLjksMS4xLDUuOCwyLjEsOC42LDMuNCYjMTA7JiM5O2MxLjUsMC43LDIuMywwLjYsMi45LTFjMC4xLTAuMiwwLjMtMC40LDAuNy0wLjhjMSwxLjIsMS45LDIuNCwyLjcsMy43YzEuMiwyLjIsMS42LDIuMywzLjUsMC45YzAuOCwyLjQsMS41LDQuOCwyLjQsNy4xJiMxMDsmIzk7YzEuNiw0LjMsMy4zLDguNiw1LDEyLjljMC4yLDAuNCwwLjQsMC43LDAuNiwxYzEuNCwyLjUsMi44LDUsNC4yLDcuNGwtMC43LDAuNEMzMjMuMiw5OC40LDMyMS44LDk1LjksMzIwLjQsOTMuNkwzMjAuNCw5My42eiYjMTA7JiM5OyBNMzE5LjgsMTAyLjJjMC4xLTAuNCwwLjMtMC43LDAuNS0xYzAuNCwwLjEsMC43LDAuMywxLDAuNmMxLjcsMiwxLjQsMi44LTEuNSw0LjJDMzE5LjgsMTA0LjYsMzE5LjcsMTAzLjQsMzE5LjgsMTAyLjJMMzE5LjgsMTAyLjImIzEwOyYjOTt6IE0zMDcuOCwxMDUuMmMwLjMtMC44LDAuOC0xLjksMS4yLTNjMC45LTIuNCwwLjUtMy4yLTItMy45YzEuNS0yLjgsMy45LTIuMyw2LjYtMS42bC0xLTMuOGMyLjQtMC4yLDQuNiwxLjUsNC44LDMuOSYjMTA7JiM5O2MwLDAuMSwwLDAuMywwLDAuNGMwLjMsMy4zLDAuNCw2LjcsMC42LDEwYzAuMSwwLjYsMC4zLDEuMywwLjUsMS44YzAuNS0wLjMsMS0wLjYsMS40LTFjMS43LTEuNywzLjMtMy40LDUuMi01LjQmIzEwOyYjOTtjMC4yLDEuMSwwLjQsMiwwLjcsMy40bDUuMS0zLjljMCwxLjItMC4xLDIuMy0wLjMsMy41Yy0wLjMsMC45LTAuMiwxLjUsMC44LDEuN2MwLjEsMCwwLjMsMCwwLjQsMC4xYzAuNiwwLjcsMS4zLDEuNSwxLjksMi4yJiMxMDsmIzk7bC0yLjUsMC43YzAuMSwwLjYsMC4yLDEuMSwwLjQsMS43YzEsMi45LDAuMiw2LjEtMS45LDguMmMtMC4yLDAuMi0wLjgsMC4zLTEsMC4yYy0wLjMtMC4zLTAuNS0wLjctMC42LTEuMWMwLTEuNCwwLjEtMi44LDAuMS00LjImIzEwOyYjOTtjLTAuMS0yLjMtMC45LTQuNS0yLjUtNi4ybC04LjYsNC40Yy0wLjUtMy40LDAuNy03LjMtMi42LTEwbC0yLjYsMy45QzMxMC40LDEwNi42LDMwOS4yLDEwNiwzMDcuOCwxMDUuMkwzMDcuOCwxMDUuMnogTTMwNS4zLDExNy44JiMxMDsmIzk7YzEtMS43LDIuMS0zLjMsMy4zLTQuOGMxLjktMi4zLDMuOS00LjYsNS45LTdjMS45LDMsMS4zLDgtMC40LDEwLjZjLTEuNywyLjgtMy4xLDUuOC00LjIsOC44Yy0wLjUsMS40LTEsMS42LTIuMywxLjMmIzEwOyYjOTtzLTIuMi0wLjUtMS44LTIuMXMwLjctMy42LTAuOC01LjJDMzA0LjksMTE5LDMwNSwxMTguMywzMDUuMywxMTcuOEwzMDUuMywxMTcuOHogTTI5MC44LDEyNy4xYzAuNC0wLjcsMC44LTEuMywxLjQtMi4yJiMxMDsmIzk7YzAuNy0wLjMsMS40LTAuNSwyLjItMC43YzAuNi0wLjEsMS4yLDAuMSwxLjYsMC40YzEuOSwxLjMsMy45LDIsNi4yLDFjMC41LTAuMSwxLDAsMS41LDAuMmMwLjIsMC4xLDAuMywwLjgsMC4zLDAuOCYjMTA7JiM5O2MtMC41LDAuMy0xLDAuNC0xLjUsMC42Yy0zLjIsMC42LTYuMywxLjEtOS41LDEuN2MtMC41LDAuMS0xLjEsMC4yLTEuNywwLjFjLTAuNS0wLjEtMS0wLjQtMS41LTAuNiYjMTA7JiM5O0MyOTAuMiwxMjcuOSwyOTAuNSwxMjcuNSwyOTAuOCwxMjcuMUwyOTAuOCwxMjcuMXogTTI1My41LDE0Ny44Yy0xLTAuMS0xLjktMC41LTEuNS0xLjljMC43LTIuNSwyLjYtNC42LDUuMS01LjQmIzEwOyYjOTtjMC42LTAuMSwxLjIsMC4yLDEuNiwwLjdDMjU5LjMsMTQzLDI1NS42LDE0Ny43LDI1My41LDE0Ny44TDI1My41LDE0Ny44eiBNMzQ1LjQsMTk1LjJjMS41LDEuMSwxLjYsMiwwLjYsMy43cy00LjIsMi4xLTYuNywxJiMxMDsmIzk7TDM0NS40LDE5NS4yeiBNMzM5LDE5N2MtMS4xLDEuOS0zLjQsMi45LTUuNSwyLjJjLTEuMy0wLjMtMi40LTEuOS0zLjUtMi45YzAsMCwwLTAuMiwwLTAuMmMxLjYtMS4xLDMuMi0yLjMsNC45LTMuMyYjMTA7JiM5O2MxLjItMC43LDEuNiwwLjQsMi4xLDEuMlMzMzguNCwxOTYsMzM5LDE5N3ogTTMzMS4yLDE5OS43bC0zLjUsMS4xYzAuNC0xLjIsMC42LTIsMS0zLjFMMzMxLjIsMTk5Ljd6IE0zMjIuMiwyMTguOSYjMTA7JiM5O2MwLjgtMi4xLDIuOC0zLjEsNC41LTJMMzIyLjIsMjE4Ljl6IE0zMzcuNiwyMDUuN2MtMS4zLDAuMS0yLjUsMC0zLjgtMC4zYy0zLjctMS02LjQsMC44LTksMi45Yy0wLjQsMC40LTAuNiwwLjktMC42LDEuNCYjMTA7JiM5O2MwLDAuMiwwLjgsMC41LDEuMiwwLjZjMywwLjcsNi4xLDEuMiw5LjEsMS45YzIuMiwwLjUsNCwyLjIsNC41LDQuNGMtMi41LDAuMy01LjEsMC4xLTcuNS0wLjZjLTEtMC4yLTEuOS0wLjYtMi44LTEuMSYjMTA7JiM5O2MtMi44LTEuNy01LjMtMS4xLTcuNiwwLjljLTAuOSwwLjgtMiwxLjMtMi45LDIuMWMtMy42LDMuMi03LjUsMi42LTExLjYsMS40Yy01LjMtMS41LTktNS4zLTEzLTguNmMtMi4zLTEuOS00LjQtMy44LTYuNi01LjcmIzEwOyYjOTtjLTAuOC0wLjYtMS41LTEuMi0yLjIsMC4zbC0xLjctNC4zbC0yLDMuMWMtMS4xLTIuOSwxLjgtNS45LTAuOS04LjZjMS44LTEuMiwzLjctMi42LDUuNy0zLjhjNS42LTMuNSw5LjktOC40LDE0LjEtMTMuNCYjMTA7JiM5O2MzLjEtMy44LDYtNy42LDcuNi0xMi4zYzAuOC0yLjMsMS4zLTQuOSwzLjYtNi42YzEuNy0xLjMsMy0yLjYsNS41LTEuOWMyLjcsMC44LDQuOS0wLjUsNi41LTMuMWMxLjUsMy4xLDMuMiw1LjYsMi40LDkuMiYjMTA7JiM5O2MtMC42LDMuMy0wLjgsNi43LTAuNSwxMGMwLjEsMS45LDEsMy43LDEuNyw1LjVjMC4yLDAuNSwwLjgsMC44LDEuMywxLjJjMC4zLTAuNSwwLjYtMSwwLjktMS42YzAuMi0wLjUsMC4zLTEsMC40LTEuNSYjMTA7JiM5O2MxLjIsMi41LDIuMyw0LjgsMy41LDcuMmMtMy42LDAuNi02LjgsMi41LTkuMSw1LjRjLTAuMy0xLTAuNS0xLjgtMC44LTMuMWMtMC43LDEuMS0xLDEuNy0xLjQsMi4zbC0wLjUsMC4xJiMxMDsmIzk7Yy0wLjMtMS40LTAuNi0yLjgtMC44LTQuM3MtMC40LTIuOC0wLjYtNC4ybC0wLjctMC4xbC0xLjcsMy4yYy0wLjYtNC4yLTAuNi04LjMsMS42LTEyLjRjLTguMSw0LjEtMTUuNiw4LjMtMjAuNiwxNS44JiMxMDsmIzk7Yy0xLjYsMi40LTMuMSw0LjgtNC42LDcuMWwwLDBjLTAuNiwyLjYtMi40LDAuNC0zLjUsMC43bDMuNSw1LjVjMC4xLTAuNiwwLjMtMS4zLDAuNC0xLjljMC4xLTEsMC4zLTIsMC40LTMmIzEwOyYjOTtjNS4xLTkuMiwxMi45LTE1LjYsMjItMjEuNmMtMi4zLDUuMy0yLjUsMTAuMSwxLDE0LjdsMC44LTQuMmwwLjUtMC4xYzAuMywzLjEsMC43LDYuMiwyLjgsOC45YzAuMy0xLDAuNS0xLjcsMC45LTIuOSYjMTA7JiM5O2MwLjQsMC42LDAuNiwwLjgsMC42LDFjLTAuMSwyLjctMC4yLDUuNC0wLjYsOC4xYy0wLjMsMS4yLTAuOCwyLjQtMS41LDMuNGMtMS40LDIuMi0yLjksNC41LTQuNSw2LjZjLTEuMywxLjctMi44LDMuMy00LjMsNC43JiMxMDsmIzk7Yy0xLjcsMS41LTQuMywxLjUtNiwwYy0zLjEtMy4yLTYuMS02LjYtOC45LTEwYy0xLjItMS44LTIuMy0zLjYtMy4yLTUuNWwtMC40LDEuOWMyLDYuOCw2LjksMTEuNCwxMi40LDE1LjRjMi4zLDEuNyw1LjIsMSw3LjItMC45JiMxMDsmIzk7YzQuNy00LjMsOS4xLTksMTAuNi0xNS42YzAuNC0xLjUsMC42LTMuMSwwLjYtNC43YzAuMi00LjMsMy4xLTYuMiw2LjYtNy4xYzIuOS0wLjYsNS45LTAuOSw4LjktMC45YzAuOCwwLDIuMiwwLjksMi40LDEuNSYjMTA7JiM5O2MwLjMsMS40LTEuMSwxLjYtMi4zLDEuOWMtMi42LDAuNS01LjEsMS4yLTcuNywxLjljLTMuNSwxLjItNS42LDUuOC02LDkuMWMtMC4xLDEuMSwwLjQsMS4zLDEuNCwxLjJjMS44LTAuMywzLjUtMC41LDUuMy0wLjYmIzEwOyYjOTtjMS4yLTAuMSwyLjQsMCwzLjYsMC4xYzIuNywwLjQsNS41LDAuOCw4LjIsMS4zYzAuNiwwLjIsMS4yLDAuNSwxLjcsMC45Yy0wLjUsMC41LTEsMS4zLTEuNSwxLjRDMzQyLjQsMjA1LjYsMzQwLDIwNS43LDMzNy42LDIwNS43JiMxMDsmIzk7TDMzNy42LDIwNS43eiBNMzM1LjYsMjA3LjljLTIsMS45LTQuNiwyLjEtNy4yLDAuNkMzMjkuNywyMDYuOCwzMzIuNSwyMDYuNSwzMzUuNiwyMDcuOUwzMzUuNiwyMDcuOXogTTM2MS42LDI1MC45bC0zLjIsMS4xJiMxMDsmIzk7Yy0wLjktMS4xLTEuNi0wLjctMi40LDAuN2MtMS43LDMuMy0zLjQsNi42LTUuMiw5LjhjLTEuMywyLjItMi43LDQuMy00LjMsNi4zYy0yLjMsMy00LjYsNi03LDljLTAuMiwwLjMtMC41LDAuNS0wLjgsMC43bC0wLjUtMC4yJiMxMDsmIzk7YzAuOS0yLjMsMS43LTQuNiwyLjYtNi45YzAuMi0wLjQsMC42LTAuNywwLjgtMS4xYzAuMS0wLjUsMC4xLTAuOSwwLjEtMS40Yy0wLjQsMC4xLTEsMC4xLTEuMiwwLjRjLTIsMi4yLTQsNC40LTUuOCw2LjcmIzEwOyYjOTtjLTIuNSwzLjUtNS41LDYuNi04LjksOS4zYy0wLjUsMC4zLTAuOSwwLjYtMS40LDAuOGMwLTAuNS0wLjEtMC44LDAtMWMxLjktNC4yLDIuMS04LjgsMy0xMy4zczEuNC04LjgsNC41LTEyLjMmIzEwOyYjOTtjMC45LTEsMS40LTIuMi0wLjQtM2w0LjItMy42bC0wLjMtMC44Yy0xLjIsMC4xLTIuMywwLjMtMy40LDAuNmMtMy43LDEuMi03LjMsMi41LTExLDMuN2MtMC41LDAuMS0xLDAuMi0xLjUsMC4yJiMxMDsmIzk7YzcuOC03LjksMTcuNi0xMC41LDI3LjktMTIuMmMwLTAuMy0wLjEtMC42LTAuMi0wLjlsLTUuOS0wLjZ2LTAuNGMwLjUtMC4xLDEtMC4yLDEuNi0wLjNjNC0wLjMsOC0wLjYsMTEuOS0wLjgmIzEwOyYjOTtjMC41LDAsMS4xLDAuMiwxLjUsMC42YzEuOCwyLjgsMy42LDUuNyw1LjMsOC41YzAsMC4xLDAsMC40LDAsMC40TDM2MS42LDI1MC45eiIvPiYjeGE7PHBhdGggZD0iTTM1NS45LDMxMy41TDM1NS45LDMxMy41TDM1NS45LDMxMy41TDM1NS45LDMxMy41eiIvPiYjeGE7PHBhdGggZD0iTTE3NS4zLDI4NC4yYzAtMC4zLTAuMS0wLjUtMC4xLTAuOGMwLjEtMi4zLDEuNy0zLjIsMy43LTJjMC4zLDAuMSwwLjcsMC4yLDEsMC4yYy0wLjUtNi40LDMtNy44LDguNi03JiMxMDsmIzk7Yy0yLjEtMi4yLTIuMS0yLjEtMC4xLTQuM2MxLjctMi4xLDQuNS0zLDcuMS0yLjNjMC4xLTQuNiwzLjQtNy44LDcuOC03LjZjNC42LDAuMiw3LjksMy4yLDcuNiw3LjFjNS4xLTEuMywxMC40LDEuMiwxMi41LDYmIzEwOyYjOTtjMi40LTEuNiw0LjgtMC44LDcuMiwwLjFjMi4yLDAuNywzLjYsMi44LDMuNCw1LjFjLTAuMywyLTIuNCwzLjktNSw0YzAuOCwwLjUsMS43LDAuOSwyLjYsMS4yYzMuMywwLjYsNC40LDQsMi40LDYuOCYjMTA7JiM5O2MtMS4xLDEuNi0zLjEsMi43LTQuNyw0Yy0wLjksMC42LTEuOCwxLjItMi44LDEuN2MwLjEsMC4yLDAuMiwwLjQsMC4zLDAuNmMxLjQsMC4xLDMuMS0wLjMsNC4xLDAuNHMxLjMsMi40LDIsMy44JiMxMDsmIzk7YzIuMy0zLjIsNCwwLDYuNCwwLjhjLTAuNC0wLjktMC42LTEuNC0wLjgtMS45Yy0wLjMtMC43LTAuNS0xLjQtMC42LTIuMWMwLjMtMi41LDEuNS00LjgsMy4zLTYuNGMxLjYtMS41LDQtMS45LDYtMSYjMTA7JiM5O2MyLjIsMC45LDQuMiwyLjIsNC42LDQuOWMwLDEtMC4yLDIuMS0wLjUsMy4xYzAuMiwwLjEsMC40LDAuMywwLjYsMC4yYzMuMy0wLjUsMy41LTAuNCwzLjEsM2MwLDAuNCwwLjEsMC44LDAuNCwxLjEmIzEwOyYjOTtjMS4xLDAuNiwyLjIsMS4xLDMuOCwxLjljLTAuNC0wLjktMC43LTEuNi0xLjEtMi4yYy0wLjMtMC42LTAuNi0xLjItMS0xLjhjLTAuOS0xLjItMS44LTIuMy0yLjYtMy41Yy0wLjQtMC40LTAuOC0wLjktMS0xLjUmIzEwOyYjOTtjLTAuNC0yLjUtMS45LTQuNi00LjEtNS44Yy0yLjktMS43LTUuOC0yLjUtOC44LTAuNWMtMi41LDEuNy0zLjgsNC42LTMuNiw3LjVjMCwwLjYsMCwxLjItMC4xLDEuOGMtMy41LTAuMy0zLjUtMC4zLTUuNi0yLjEmIzEwOyYjOTtjMC45LTAuOSwxLjktMS43LDIuNy0yLjZjMy4xLTMuMywzLjEtNy4xLDAuMS0xMC4zYy0wLjMtMC42LTAuMy0xLjMsMC0xLjljMi4xLTIuMywxLjUtNC43LDAuNC03LjFjLTEtMi4xLTMuMS0zLjQtNS40LTMuMiYjMTA7JiM5O2MtMS42LDAtMy4zLDAuMi00LjgsMC4zYy0yLjgtNS4yLTcuNC02LjEtMTIuNi01LjdjLTEuNi02LjktNS44LTgtOS43LTcuNmMtMy40LDAuNC03LjUsMy4zLTcuOCw2LjRjLTAuMiwyLjEtMS4xLDIuMi0yLjcsMi4yJiMxMDsmIzk7Yy0zLjMsMC4xLTYuMSwyLjMtNyw1LjVjLTAuMywwLjUtMC43LDAuOS0xLjMsMS4yYy0yLDAuOS0zLjcsMi42LTQuNiw0LjZjLTAuMywwLjYtMC44LDEtMS40LDEuMmMtMS42LDAuNS0yLjcsMS44LTIuOCwzLjQmIzEwOyYjOTtjLTAuNSwxLjgtMS4yLDMuNS0xLjksNS4yQzE3NS43LDI4Ny4zLDE3NS43LDI4Ny4zLDE3NS4zLDI4NC4yeiIvPiYjeGE7PHBhdGggZD0iTTE3Mi40LDI4OEwxNzIuNCwyODhMMTcyLjQsMjg4TDE3Mi40LDI4OEwxNzIuNCwyODhMMTcyLjQsMjg4TDE3Mi40LDI4OHoiLz4mI3hhOzxwYXRoIGQ9Ik0zMDcuMiwzMjQuNGMtMi41LDEtMi45LDAuOS01LjctMC4yYy0wLjQtMC4xLTEuMiwwLjMtMS42LDAuNmMtMi4yLDIuNC00LjgsNC42LTguMSw1Yy02LDAuNy0xMi4xLTAuNy0xNy4yLTQuMSYjMTA7JiM5O2MtMS0wLjctMi4yLTAuOS0zLjMtMC42Yy0xLjUsMC4yLTMuNSwwLjQtNC41LTAuNGMtMS43LTEuNC0zLjEtMC45LTQuNy0wLjZjLTMuMi0wLjEtNi4zLTAuMS05LjUtMC4yYy0xLjQsMC0yLjYtMC45LTMtMi4zJiMxMDsmIzk7Yy0wLjYtMS4xLTEuNC0yLjEtMi4zLTIuOWMyLjEsNC4zLDEuNCw1LjktMi44LDYuMmMtMC44LDAtMS42LTAuMS0yLjQtMC41Yy0xLjQtMC41LTIuOC0xLjItNC4yLTEuOGMtMS4xLTAuNi0yLjUtMC40LTMuNSwwLjQmIzEwOyYjOTtjLTAuOCwwLjYtMS44LDAuNy0yLjcsMC41Yy0xLjEtMC42LTIuNC0wLjQtMy4yLDAuNWMtMS44LDEuNi00LjIsMi4zLTYuNiwxLjhjLTEuOC0wLjQtMy44LTAuNi01LjItMS42Yy0zLjEtMi4xLTYuNS0xLjktOS44LTImIzEwOyYjOTtjLTcuMy0wLjEtMTQuNiwwLjMtMjEuOCwwLjRsLTY5LDEuNWMtMTguNiwwLjQtMzcuMSwwLjgtNTUuNywxLjJjLTguNSwwLjItMTcsMC4yLTI1LjUsMC40TDAsMzI2djIuN2MyLjYtMC4xLDUuMi0wLjEsNy44LTAuMiYjMTA7JiM5O2MxLjUtMC4xLDEuOCwwLjYsMS4xLDEuOWMtMS40LDMtMi45LDYtNC4yLDkuMXMtMS4yLDMuMy00LjcsMy40djIuN2MwLjUsMCwxLjEtMC4yLDEuNSwwczEuMSwxLDEsMS4yYy0wLjcsMi0xLjYsNC0yLjQsNnY3LjYmIzEwOyYjOTtsNC4zLTExLjFjMC0wLjIsMC4xLTAuNCwwLjEtMC42YzAuOC0zLjMsMC44LTMuMyw0LjEtMy40YzMuMS0wLjEsNi4yLTAuMyw5LjctMC41Yy0wLjYsMS43LTEsMy4xLTEuNiw0LjRjLTUsMTEtMTAuMSwyMi0xNS4xLDMzLjEmIzEwOyYjOTtjLTAuNSwxLjEtMS4xLDIuMS0xLjYsMy4xYzAsMS4zLDAsMi43LDAsNGMwLDAuMiwwLjUsMC40LDAuNywwLjZjNi0xMy40LDEyLjEtMjYuOCwxOC4xLTQwLjFjMC41LTEuMSwxLTIuMiwxLjMtMy40JiMxMDsmIzk7YzAuNC0xLjgsMS40LTIuMSwzLTIuMWMyLjIsMC4xLDQuNCwwLDcsMGMtMS42LDMuNS0yLjgsNi43LTQuNCw5LjZjLTMuMyw2LjEtNi44LDEyLTEwLjIsMThTOSwzODQsNS43LDM5MEg4JiMxMDsmIzk7YzMuOS02LjcsNy43LTEzLjQsMTEuNi0yMGMxLjktMy4zLDQuMi02LjUsNS45LTkuOWMyLjQtNC42LDQuNC05LjQsNi41LTE0LjFjMC4yLTAuNiwwLjYtMS4xLDEuMS0xLjVDMjkuNCwzNjAsMjMuMywzNzQuNywxOSwzOTAmIzEwOyYjOTtoMi43YzEtMy42LDItNy4yLDMuMS0xMC43YzEuOS01LjYsNC0xMS4yLDUuOS0xNi44YzAuOC0zLDEuNy02LjEsMi41LTkuMWMwLjctMi42LDEuNC01LjEsMi4xLTcuN2MwLjMtMSwwLjYtMS43LDEuOS0xLjYmIzEwOyYjOTtjMTQuOCwwLjEsMjkuNSwwLjEsNDQuMywwLjFjMS4yLDAsMS43LDAuNSwxLjIsMS42Yy0xLjMsMy4zLTIuNiw2LjYtNCw5LjhjLTAuNSwwLjYtMS4yLDEtMiwxYy00LDAuMS04LDAtMTIsMC4yJiMxMDsmIzk7Yy05LjUsMC41LTE5LDEtMjguNCwxLjVjLTAuNywwLTEuMywwLjMtMS44LDAuN2gxOC44bDI0LjQtMS4zYy00LjQsMTEuNC05LjgsMjEuNi0xNC41LDMyLjFoMy40YzUuMi05LjMsOS0xOS4yLDEzLTI5LjEmIzEwOyYjOTtjMC44LTIsMS44LTMsNC0yLjhjMS42LDAuMSwzLjMsMCw1LjIsMGMtMC4zLDAuOC0wLjYsMS43LTAuOCwyLjZjLTAuMSwwLjUsMC40LDEuMSwwLjYsMS42YzAuNS0wLjIsMS0wLjQsMS41LTAuNyYjMTA7JiM5O2MwLjItMC4xLDAuMy0wLjMsMC4zLTAuNWMwLjgtMy4xLDMuMS0zLjgsNi0zLjVjMS45LDAuMSwzLjcsMC4xLDUuNiwwYy0xLjUsMy41LTIuOCw2LjgtNC4zLDkuOWMtMy4zLDctNi43LDEzLjktMTAsMjAuOSYjMTA7JiM5O2MtMC4yLDAuNS0wLjMsMS0wLjQsMS41aDIuM2MwLjktMS43LDEuNy0zLjUsMi42LTUuMmMzLjktOC40LDcuOS0xNi44LDExLjgtMjUuM2MwLjQtMS4yLDEuNi0yLDIuOC0xLjljNC4yLDAsOC41LTAuMiwxMi43LTAuNCYjMTA7JiM5O2MwLjctMC4xLDEuMy0wLjIsMS45LTAuNHYtMC41Yy0wLjctMC4xLTEuNC0wLjItMi4xLTAuMmMtNCwwLjEtOCwwLjItMTIsMC4zYy0xLjgsMC0xLjktMC4zLTEuMi0xLjljMS0yLjMsMS45LTQuNSwyLjctNi45JiMxMDsmIzk7YzAuMi0xLDEuMi0xLjYsMi4xLTEuNGMxMC4yLDAuOSwyMC40LDEuOCwzMC43LDIuNmMwLjgsMC4xLDEuNSwwLjIsMi43LDAuNWMtMS42LDIuMi0zLjQsNC4yLTUuMiw2LjJjLTQsMy43LTgsNy40LTEyLjMsMTAuNyYjMTA7JiM5O2MtNSwzLjctOC45LDguNy0xMS4zLDE0LjRjLTEuMywzLjMtMy4zLDYuMi01LDkuM2gzLjRjMS45LTMuOSwzLjYtNy44LDUuNy0xMS41YzIuNC00LjQsNi40LTcuMywxMC40LTEwLjEmIzEwOyYjOTtjNi4zLTQuNCwxMi43LTguNywxOS0xMy4yYzEuNi0xLjIsMy4xLTIuNiw0LjYtMy45YzAuNS0wLjQsMS4xLTAuOSwxLjYtMC45YzIuOCwwLjIsNS42LDAuNSw5LDAuOGMtMi45LDIuOC01LjIsNS41LTgsNy41JiMxMDsmIzk7Yy0yLjMsMS43LTUuMiwyLjQtNy43LDMuOWMtMiwxLjEtMy45LDIuNS01LjQsNC4yYy00LjMsNS42LTcuOCwxMS43LTEwLjUsMTguMmMtMC43LDEuNy0xLjYsMy4zLTIuMyw1aDNjMy4yLTYsNi40LTExLjksOS42LTE3LjgmIzEwOyYjOTtjMS45LTMuNCwzLjktNi44LDguMS04LjFjNC41LTEuNiw4LjUtNC40LDExLjUtOGMwLjktMS4xLDItMi4xLDMuMi0zYzMuMS0yLjMsNi00LjYsOC4yLTcuOGMxLjItMS43LDIuOS0zLjMsNS4yLTMuMiYjMTA7JiM5O2M0LjIsMC4zLDcuMy0xLjcsOS44LTQuN2MyLjItMi44LDUuNS00LjYsOS4xLTQuOWM0LjEtMC41LDcuNi0yLDEwLjEtNS42YzEuNS0yLjIsNS4yLTIuNiw3LjctMS40YzQuNywyLjUsOS40LDMuNCwxNC0wLjQmIzEwOyYjOTtjMC40LTAuNCwxLjQsMCwyLjEtMC4xYzEsMCwyLjQsMC4zLDMtMC4yYzEuNS0xLjQsMi44LTEsNC4zLTAuMWMwLjksMC41LDEuOCwxLDIuNywxLjRjMi41LDEuNSw1LjcsMSw3LjYtMS4yJiMxMDsmIzk7YzEtMS4yLDEuNi0wLjksMi44LTAuNGM0LDEuOSw4LDIuNiwxMi4yLDAuNWMwLjQsMC4xLDAuOCwwLjIsMS4yLDAuNGMyLDEuNyw0LjIsMi42LDYuOCwxLjJjMC41LTAuMiwxLjEtMC4xLDEuNSwwLjImIzEwOyYjOTtjMi41LDIsNS41LDMuNCw4LjYsNC4xYzUuOCwxLjUsMTEuNSwxLjcsMTYuMi0yLjhjMi0xLjksNC0yLjcsNi42LTIuMWMwLjUsMC4xLDEuMSwwLjMsMS41LDAuNmMzLDIuOSw2LjMsMy40LDkuOCwxLjMmIzEwOyYjOTtjMS4xLTAuOCwyLjEtMS43LDMtMi43Yy0xLjIsMC42LTIuNCwxLjItMy43LDEuNkMzMTIuNSwzMjcuOCwzMDguOSwzMjYuNywzMDcuMiwzMjQuNHogTTE1OCwzMjUuNmM2LjMtMC4yLDEyLjctMC41LDE5LTAuOCYjMTA7JiM5O2MwLjMsMCwwLjcsMC4xLDEsMC4yYy01LjMsMi43LTkuMSw2LjktMTMuMSwxMC45Yy0xLDEuMi0yLjQsMS44LTMuOSwxLjhjLTEuNiwwLTMuMiwwLjEtNC43LDAuMmMtMSwwLjEtMS42LTAuMS0xLjEtMS4yJiMxMDsmIzk7YzEuMi0zLDEuOC02LjIsMS41LTkuNUMxNTYuNywzMjYuMywxNTYuOSwzMjUuNywxNTgsMzI1LjZ6IE0xMjIuNywzMjUuOWMxMC42LDAsMjEuMS0wLjIsMzEuNy0wLjRjMS4xLDAsMS43LDAuMiwxLjMsMS4zJiMxMDsmIzk7Yy0xLjIsMy42LTIuNCw3LjItMy43LDEwLjdjLTAuMiwwLjUtMS4zLDAuOS0yLjEsMC45Yy03LjEsMC40LTE0LjMsMC43LTIxLjQsMXYwLjJjLTQuOCwwLTkuNiwwLTE0LjQsMGMtMS41LDAtMS45LTAuNS0xLjItMS44JiMxMDsmIzk7YzEuOC0zLjMsMy43LTYuNiw1LjYtOS45QzExOS40LDMyNi42LDEyMSwzMjUuNywxMjIuNywzMjUuOUwxMjIuNywzMjUuOXogTTk5LjksMzI4LjVjMC4xLTEuMiwwLjUtMS43LDEuNy0xLjdoN2wwLjIsMC41JiMxMDsmIzk7Yy0xLjIsMS40LTIuNiwyLjYtMy42LDQuMWMtMS43LDIuNC0zLjMsNC45LTUsNy4zYy0wLjIsMC4zLTAuNCwwLjYtMC43LDAuOWMtMC41LDAuMi0wLjksMC41LTEuNCwwLjZjLTAuMS0wLjUtMC40LTEuMS0wLjMtMS41JiMxMDsmIzk7YzAuNC0xLjUsMS0zLDEuMy00LjZDOTkuNSwzMzIuMiw5OS44LDMzMC40LDk5LjksMzI4LjVMOTkuOSwzMjguNXogTTg4LjQsMzM2LjdjMC41LTIuMywwLjgtNC42LDAuOS02LjljMC4xLTIuNiwwLTIuNywyLjgtMi44JiMxMDsmIzk7YzEuNCwwLDIuOCwwLDQuMi0wLjFjMS4yLDAsMS45LDAuNCwxLjYsMS42Yy0wLjcsMy41LTEuNCw3LTIuMiwxMC41Yy0wLjEsMC41LTEsMS0xLjcsMS4xYy0wLjksMC4xLTEuOCwwLjEtMi43LDAmIzEwOyYjOTtDODcuNCwzNDAuNiw4Ny40LDM0MC41LDg4LjQsMzM2Ljd6IE05NC4yLDM0My4xYy0wLjgsMC43LTYuNCwwLjEtNy42LTFjMS0wLjEsMS44LTAuMiwyLjUtMC4zYzEuNS0wLjEsMy0wLjEsNC41LTAuMSYjMTA7JiM5O2MwLjQsMCwwLjcsMC4xLDAuOSwwLjRDOTQuNSwzNDIuNiw5NC40LDM0Mi45LDk0LjIsMzQzLjF6IE0xOS45LDM0MC44Yy0wLjIsMC41LTAuOCwxLjItMS4yLDEuMmMtNCwwLjEtOC4xLDAtMTIuNCwwJiMxMDsmIzk7YzAuOC0xLjksMS42LTMuOCwyLjMtNS44czEuNi00LjEsMi4yLTYuM2MwLjEtMC45LDAuOS0xLjUsMS44LTEuNGMwLDAsMCwwLDAuMSwwYzMuOSwwLDcuNywwLDExLjgsMGMtMC4xLDAuNS0wLjIsMS4xLTAuNCwxLjYmIzEwOyYjOTtDMjIuNywzMzMuOCwyMS40LDMzNy4zLDE5LjksMzQwLjhMMTkuOSwzNDAuOHogTTM4LjUsMzQxLjZjLTEuNSwwLjEtMi40LTAuMi0xLjctMmMwLjQtMSwwLjYtMi4xLDAuOS0zLjJjMC41LTEuMiwwLjktMi4zLDEuNC0zLjUmIzEwOyYjOTtsLTAuMy0wLjNsLTIuNiwyLjJjLTEuNCwxLjktMi44LDMuOC00LjMsNS43Yy0wLjQsMC42LTEuMSwxLjEtMS44LDEuMmMtMi4xLDAuMi00LjMsMC4yLTYuNSwwLjNjLTEuMiwwLTEuNS0wLjQtMS4yLTEuNiYjMTA7JiM5O2MxLTMuNCwyLjEtNi44LDIuOS0xMC4yYzAuMy0xLjQsMS0xLjYsMi4yLTEuNmMxNS0wLjIsMjkuOS0wLjMsNDQuOC0wLjZjNC40LTAuMSw4LjctMC40LDEzLjEtMC44YzEuOC0wLjEsMi4yLDAuNCwxLjksMi4xJiMxMDsmIzk7Yy0wLjcsMy4xLTEuNCw2LjMtMiw5LjVjLTAuMSwxLjItMS4yLDIuMS0yLjQsMmMwLDAtMC4xLDAtMC4xLDBjLTEyLjksMC4yLTI1LjgsMC41LTM4LjgsMC43QzQyLjIsMzQxLjUsNDAuMywzNDEuNSwzOC41LDM0MS42JiMxMDsmIzk7TDM4LjUsMzQxLjZ6IE03Ny4zLDM0Mi43di0wLjZsNi42LTAuNHYxQzgxLjcsMzQzLjQsNzkuNSwzNDIuNyw3Ny4zLDM0Mi43TDc3LjMsMzQyLjd6IE05MCwzNTUuN2MtMC4xLDAuMy0wLjQsMC41LTAuNywwLjUmIzEwOyYjOTtjLTIuNCwwLTQuOCwwLTcuNSwwYzEtMi43LDItNS40LDMtOGMxLjItMy40LDEuMi0zLjQsNC45LTMuM2MxLjIsMCwyLjMsMCw0LjEsMEM5Mi40LDM0OSw5MS4yLDM1Mi4zLDkwLDM1NS43TDkwLDM1NS43eiYjMTA7JiM5OyBNMTA2LjQsMzQ3LjdjLTEuMSwyLjYtMi4yLDUuMS0zLjQsNy42Yy0wLjQsMC41LTAuOSwwLjgtMS41LDAuOGMtMS4xLDAuMS0yLjMsMC4xLTMuNCwwdjAuMWgtMy40Yy0xLjEsMC0xLjQtMC41LTAuOS0xLjUmIzEwOyYjOTtjMS40LTIuNywyLjctNS40LDQuMi04LjFjMC41LTAuNiwxLjMtMSwyLjEtMS4xYzEuNywwLDMuNCwwLjMsNS4xLDAuNEMxMDYuNSwzNDYsMTA2LjksMzQ2LjYsMTA2LjQsMzQ3LjdMMTA2LjQsMzQ3Ljd6JiMxMDsmIzk7IE0xMDcuMiwzNDQuM2MtMi42LDAtNS4yLTAuMS03LjctMC40YzAuOC0xLjgsMS42LTIuNCwzLjEtMi40czMtMC4xLDQuNS0wLjFjMC43LDAuMSwxLjMsMC40LDEuOCwwLjgmIzEwOyYjOTtDMTA4LjMsMzQyLjksMTA3LjgsMzQ0LjIsMTA3LjIsMzQ0LjNMMTA3LjIsMzQ0LjN6IE0xMDkuNywzMzkuN2MtMi41LDAuMi00LjksMC4zLTcuNCwwLjVsLTAuMi0wLjZjMS4yLTEuOSwyLjUtMy43LDMuNy01LjYmIzEwOyYjOTtjMS42LTIuMywzLjEtNC42LDQuNy02LjljMC4yLTAuMywwLjYtMC44LDAuOS0wLjhjMi4yLTAuMSw0LjQsMCw2LjYsMGMwLjEsMC4xLDAuMiwwLjMsMC4yLDAuNGMtMy42LDMuMy01LjIsNy45LTcuNiwxMS45JiMxMDsmIzk7QzExMC40LDMzOC45LDExMCwzMzkuNiwxMDkuNywzMzkuN0wxMDkuNywzMzkuN3ogTTE0My41LDM0Ny44Yy03LjUtMC42LTE1LTEuMy0yMi41LTJjLTIuOC0wLjItNS43LTAuNC04LjUtMC44JiMxMDsmIzk7Yy0wLjgtMC4xLTEuOC0wLjUtMi4xLTFjLTAuNC0wLjgsMS40LTIuOSwyLjMtM3MyLTAuMSwzLTAuMWwzMy40LTFjMC41LDAuMSwxLjEsMC4yLDEuNiwwLjRjLTEuNywyLjUtMy4xLDQuNy00LjgsNi44JiMxMDsmIzk7QzE0NS4zLDM0Ny42LDE0NC40LDM0Ny44LDE0My41LDM0Ny44TDE0My41LDM0Ny44eiBNMTQwLjUsMzU4LjloLTEuOWMyLjItMi41LDQuNS01LDYuNy03LjVjMS43LTEuOSwzLTIuMiw2LjEtMS4xJiMxMDsmIzk7QzE0OCwzNTMuNywxNDQuMiwzNTYuMiwxNDAuNSwzNTguOUwxNDAuNSwzNTguOXogTTE0OC40LDM0OGMxLjgtMi43LDMuNC01LjIsNS4xLTcuN2MwLjEtMC4yLDAuNC0wLjQsMC42LTAuNCYjMTA7JiM5O2MyLjQtMC4yLDQuOC0wLjQsNy42LTAuNmMtMC4yLDAuNC0wLjMsMC44LTAuNiwxLjFjLTIsMS45LTMuOCwzLjktNS42LDZDMTUzLjYsMzQ4LjksMTUxLjIsMzQ4LjUsMTQ4LjQsMzQ4TDE0OC40LDM0OHomIzEwOyYjOTsgTTE4MS41LDM0MC43Yy00LjktMC4zLTguMSwyLjEtMTAuOSw1LjhjLTEuOSwyLjUtNC4zLDQuMi03LjksMy4zYy0yLjItMC40LTQuNC0wLjYtNi42LTAuNmwxLjktMmMyLjEtMi4zLDQuMi00LjcsNi40LTcmIzEwOyYjOTtjMC41LTAuNiwxLjMtMSwyLjEtMS4xYzYuNS0wLjgsMTIuOS0xLjQsMTkuNC0yLjFjMC4zLDAsMC42LDAsMC45LDAuMUMxODYuNCwzMzguNiwxODMuNywzNDAuNywxODEuNSwzNDAuN0wxODEuNSwzNDAuN3omIzEwOyYjOTsgTTIwMSwzMjkuN2MtMS45LDAuNi0zLjgsMS01LjYsMS43Yy0xLjYsMC42LTMuMiwxLjQtNC42LDIuNGMtMS4xLDEtMi41LDEuNi00LDEuOGMtNS45LDAuNi0xMS43LDEuMi0xNy41LDEuOWMtMC42LDAtMS4yLDAtMS44LDAmIzEwOyYjOTtsLTAuMy0wLjZjMi0yLDQtNC4xLDYtNi4xYzEtMC44LDItMS42LDMuMS0yLjJjMy43LTIuNyw4LjItNC4xLDEyLjgtMy43YzUuNSwwLjUsMTEuMSwwLDE2LjcsMGMwLjYsMCwxLjEsMC4xLDEuNiwwLjEmIzEwOyYjOTtjMC4xLDAuMiwwLjIsMC40LDAuMiwwLjZDMjA1LjcsMzI3LjQsMjAzLjQsMzI4LjgsMjAxLDMyOS43eiIvPiYjeGE7PHBhdGggZD0iTTMxOS41LDMyNS4xTDMxOS41LDMyNS4xTDMxOS41LDMyNS4xTDMxOS41LDMyNS4xTDMxOS41LDMyNS4xeiIvPiYjeGE7PHBhdGggZD0iTTQwMS44LDMyMy45Yy0zLjgsMS41LTgsMS44LTExLjksMC44Yy0xLjItMC4zLTIuNS0wLjEtMy42LDAuNmMtNC4yLDItOC43LDIuNS0xMywwLjZjLTIuMS0wLjktMy45LTEuNC02LTAuMyYjMTA7JiM5O2MtMC4yLDAuMS0wLjMsMC4yLTAuNSwwLjJjLTUuMiwxLjMtMTAuNCwyLjItMTUuNi0wLjJjLTAuNy0wLjItMS4zLTAuMi0yLTAuMmMwLjcsMSwwLjksMS43LDEuNCwyYzEuMSwwLjcsMi4yLDEuMiwzLjQsMS42JiMxMDsmIzk7YzUsMS41LDkuNiwwLjQsMTMuOS0yLjRjMC42LTAuNCwxLjQtMC41LDIuMS0wLjJjNS4xLDMuMSwxMC41LDIuOSwxNS44LDAuOWMxLjYtMC43LDMuMy0wLjgsNC45LTAuNWMzLjgsMSw3LjksMC43LDExLjUtMC43JiMxMDsmIzk7YzEuNi0wLjcsMy42LTAuNiw1LjQtMC44YzEuMy0wLjEsMi41LTAuMSwzLjgtMC4yYy0xLjctMC42LTMuNS0xLTUuNC0xLjJDNDA0LjcsMzIzLjQsNDAzLjIsMzIzLjUsNDAxLjgsMzIzLjl6Ii8+JiN4YTs8cGF0aCBkPSJNMzQ5LDEyOC4yTDM0OSwxMjguMkwzNDksMTI4LjJMMzQ5LDEyOC4yTDM0OSwxMjguMnoiLz4mI3hhOzxwYXRoIGQ9Ik0zNDMsMTI4YzAuNCwwLjIsMC44LDAuNCwxLjIsMC42YzMuNiwxLDYuOCwzLjIsOS4xLDYuMmMxLjEsMS4xLDEuMywyLjcsMC43LDQuMWwtNC0zLjdjLTAuNSw0LjIsMi43LDcuMywxLjUsMTEuMiYjMTA7JiM5O2wtMS45LTEuOGwwLjEsMC42Yy0xLjgsMC43LTMuNiwxLjUtNS40LDIuMmMtMS45LDAuNy00LjEsMC4yLTUuNC0xLjRjLTMtMy4yLTcuMy01LTExLjgtNC44Yy0xLDAtMi4xLDAtMy4xLDAmIzEwOyYjOTtjMS4zLDAuNywyLjcsMS4yLDQuMiwxLjVjMy40LDAuNCw2LjYsMS43LDkuMiwzLjhjMi43LDIuMSw1LjUsMy42LDksMS44YzEuMi0wLjYsMi41LTEuMSwzLjgtMS44bDIuNywzLjRjMC4zLTMuNiwwLjYtNi42LDAuOS05LjcmIzEwOyYjOTtsMS42LDAuM2MtMC4zLTAuOC0wLjUtMS43LTAuNS0yLjVjMC42LTQtMS43LTYuMy00LjUtOC41Yy0wLjUtMC41LTEtMS0xLjUtMS42QzM0Ny4xLDEyNy45LDM0NS4zLDEyNy4xLDM0MywxMjh6Ii8+JiN4YTs8cGF0aCBkPSJNNDA3LjksMzE5LjZjLTEuMywwLjEtMi42LTAuMS0zLjgsMGMtMSwwLjEtMi40LDAuMS0yLjksMC44Yy0xLjEsMS40LTIuMywxLjQtMy43LDEuMXMtMS41LTEuNC0xLjYtMi40JiMxMDsmIzk7Yy0wLjQtMi0yLjgtMy44LTUuMy00Yy0yLTAuMi0zLjQsMC41LTQuNSwyLjdjLTAuNSwwLjktMC44LDAuOC0xLjcsMC40Yy0zLTEuMy02LjEtMi4xLTkuMSwwLjJjLTAuNiwwLTEuNSwwLjMtMS45LDAmIzEwOyYjOTtjLTEuNy0xLjYtMy44LTEuNy01LjktMS40Yy0wLjksMC4yLTEuOS0wLjItMi4zLTFjLTEtMS40LTIuMy0yLjUtMy40LTMuN2MtMC4zLTAuNC0wLjUtMC45LTAuNS0xLjRjMC41LTMuMS0wLjUtNS4zLTMuMy02LjQmIzEwOyYjOTtjLTEuNi0wLjYtMi0xLjItMS41LTIuOWMwLjktMy4zLTAuNy02LjYtMy40LTcuNGMtMS45LTAuNi0zLjgtMC45LTUuOC0wLjljLTEuNCwwLjEtMi44LDAuNi00LDEuNWMtMS4yLDAuOS0xLjcsMC45LTIuOC0wLjEmIzEwOyYjOTtjLTQuMi0zLjktMTEuOC0xLjgtMTIuOCwzLjVjLTAuMSwxLjItMC44LDIuMi0xLjgsMi43Yy0xLjEsMC42LTEuOSwxLjUtMy40LDEuNWMtMC42LDAtMS43LDEtMS44LDEuN2MtMC4yLDEuNi0wLjIsMy4zLTAuMSw0LjkmIzEwOyYjOTtjLTIuMSwwLjQtMi4zLDAuMS0yLjQtMi4yYzAtMS41LTAuNC0zLjEtMS4zLTQuNGMtMy4xLTMuNi03LjYtMi42LTkuNSwxLjhjLTAuNCwwLjgtMSwxLjUtMS42LDIuMmMtMC42LTAuNS0xLjItMS4xLTEuOC0xLjcmIzEwOyYjOTtjLTEuNC0xLjktNC0zLjEtNS42LTIuMWMtMS40LDAuOS0yLjEsMC41LTMuMS0wLjRjLTEuMi0xLTMtMS4zLTMuOC0wLjFjLTEuNCwyLTMsMS44LTQuOSwxLjVjLTAuNSwwLTEsMC0xLjUsMC4yJiMxMDsmIzk7Yy0xLDAuMi0xLjQtMC4yLTEuNC0xLjJjMC0xLjEtMC4yLTIuMS0wLjUtMy4xYy0yLTQuOS05LjMtNy4xLTEzLjgtNC4zYy0wLjQsMC4yLTAuOSwwLjUtMC45LDAuOWMtMC42LDMuMS0yLjYsMi43LTQuNywxLjkmIzEwOyYjOTtjLTAuNC0wLjEtMC45LTAuMi0xLjMtMC4xYy0yLDAtMy45LDEtNC41LDIuNGMzLjItMS4zLDYtMC41LDguNywxLjFjMi4yLDEuNCwyLjQsMS4xLDIuNy0xLjVjMC4xLTEuMiwwLjUtMi43LDEuMy0zLjMmIzEwOyYjOTtjMy4yLTIuMiw5LjQtMC4xLDEwLjksMy41YzEsMi41LTAuNCw0LjItMS40LDYuMmMtMC4yLDAuNi0wLjMsMS4zLTAuMywyYzAuNi0wLjMsMS4zLTAuNSwxLjctMWMxLjctMi4yLDIuOS0yLjcsNS42LTImIzEwOyYjOTtjMC41LDAuMSwxLDAuMiwxLjUsMC40YzEuMiwwLjcsMS43LDAuMSwyLjMtMWMwLjQtMC44LDEuNC0xLjcsMi4xLTEuN2MwLjksMCwxLjgsMC45LDIuNiwxLjVjMC41LDAuNiwwLjksMS4yLDEuMiwyJiMxMDsmIzk7YzAuMy0wLjQsMC42LTAuNiwwLjYtMC44YzAuNC0xLjMsMS40LTIuMiwyLjctMS44YzEuMSwwLjMsMi42LDEuMiwyLjgsMi4xYzAuNiwyLjMsMi4zLDIsMy41LDEuNWMxLjEtMC43LDEuOS0xLjcsMi40LTIuOSYjMTA7JiM5O2MxLjEtMi4xLDIuNC0yLjgsNC42LTIuM2MzLDAuNyw0LDIuNSwzLjUsNS42Yy0wLjEsMC44LDAuMywyLjQsMC42LDIuNGMxLjksMC4xLDMuOCwwLjIsNS42LDAuMWMwLjEtMC4yLDAuMS0wLjQsMC4yLTAuNiYjMTA7JiM5O2MtMS41LTEuNS0zLjUtMy0xLjgtNS4zYzAuNi0wLjgsMi4yLTAuNywzLjctMWMwLjItMS40LDEuNS0xLjksMi44LTEuOGMwLjUtMS43LDAuNy0zLjMsMS41LTQuNWMyLjYtMy41LDcuMS0zLjgsMTAuMy0wLjcmIzEwOyYjOTtjMSwxLDEuOSwyLjEsMy4xLDMuNGMwLjItMC41LDAuMy0xLDAuNC0xLjVjLTAuMS0yLjIsMC42LTMuNSwyLjgtMy41YzIuMS0wLjEsNC4zLDAuMiw2LjMsMC43YzEuMSwwLjUsMS45LDEuNCwyLjIsMi41JiMxMDsmIzk7YzAuNiwxLjksMC4zLDQtMSw1LjZjLTAuMiwwLjQtMC40LDAuOC0wLjUsMS4yYzMuOCwwLjEsNS44LDEuNyw2LjEsNWMwLjIsMi40LTAuNywzLjQtMy42LDRsMS4yLDEuOGMwLjUtMC4zLDEuMS0wLjYsMS42LTAuOSYjMTA7JiM5O2MxLjItMC45LDIuNi0xLjIsMy42LTAuMnMzLjMsMS43LDIuNiw0LjFjLTAuMSwwLjIsMC43LDEsMS4xLDFzMS0wLjQsMS41LTAuN2MyLjQtMS4xLDUuNy0wLjMsNi44LDEuN2MwLjQsMS4zLDEuMSwwLjgsMS45LDAuNSYjMTA7JiM5O2MxLjItMC42LDIuNC0xLjIsMy42LTEuNmMxLjktMC41LDMuOS0wLjgsNS41LDAuOHMxLjgsMS41LDIuNC0wLjdjMC4zLTEuNiwxLjktMi43LDMuNS0yLjVjMS43LTAuMSwzLjIsMS4zLDMuMywzJiMxMDsmIzk7YzAsMS40LDEsMi42LDIuMywyLjljMS41LDAuNCwzLjMsMC42LDQuMi0wLjljMS41LTIuNCwzLjItMC43LDQuOS0wLjhzMy40LTEuMyw1LDAuNmMwLjgsMSwxLjksMi4zLDMuOCwxYy0xLjItMC43LTIuNS0xLjItMy4zLTImIzEwOyYjOTtDNDEwLjUsMzE5LjUsNDA5LjMsMzE5LjUsNDA3LjksMzE5LjZ6Ii8+JiN4YTs8cGF0aCBkPSJNNDcuMSwyNDguNGMtMC4zLTAuOS0xLTIuMi0xLjctMi40cy0xLjgsMC44LTIuNiwxLjRjLTAuMywwLjItMC40LDAuNy0wLjcsMS4yYy0wLjctMC42LTEuNS0xLjItMi4zLTEuNyYjMTA7JiM5O2MtMS43LTAuOS00LjQsMC4xLTQuNSwxLjljLTAuMSwxLjQtMC4yLDIuNS0xLjcsMy4xYy0wLjMsMC4xLTAuMywxLTAuMywxLjZjMCwwLjksMC4xLDEuOCwwLjMsMi43YzAuNCwxLjUsMS43LDIuOCwxLjMsNC41JiMxMDsmIzk7YzAsMC4yLDAuNSwwLjYsMC44LDAuN2MxLjEsMC4zLDIuNCwwLjksMy40LDAuNmMyLTAuNyw0LjIsMC4xLDUuMiwxLjljMC45LDEuMiwyLjIsMS45LDMuNywxYzIuNi0xLjUsMy4zLTIuNywyLjUtNS4yJiMxMDsmIzk7Yy0wLjUtMS4yLTEuMi0yLjQtMS45LTMuNWMxLjktMi41LDEuNS0zLjgtMS41LTVDNDcuMiwyNTAuMyw0Ny4yLDI0OS4zLDQ3LjEsMjQ4LjR6IE00OC40LDI1My42Yy0wLjQsMC42LTAuOCwxLjItMS4yLDEuOCYjMTA7JiM5O2MtMC4zLDAuNC0wLjcsMC43LTEuMSwxLjJjMC44LDAuNCwxLjQsMC43LDIsMWMxLjcsMC44LDIuNCwyLjksMS42LDQuNmMtMC4zLDAuNi0wLjgsMS4yLTEuNCwxLjVjLTEuNCwwLjktMi40LDAuNi0zLjMtMC44JiMxMDsmIzk7Yy0xLjctMi42LTIuMi0yLjgtNS40LTIuMmMtMC45LDAuMS0xLjksMC0yLjgtMC4yYy0wLjMtMC4xLTAuNi0wLjQtMC44LTAuNmMxLTEuNi0wLjMtMi41LTEuNC0zLjVjMS4zLTAuOSwyLjUtMS44LDAuMy0yLjgmIzEwOyYjOTtjLTAuMy0wLjEtMC41LTAuOS0wLjMtMS4xYzAuMy0wLjMsMC44LTAuNSwxLjMtMC41YzAuNCwwLDAuOCwwLjMsMS41LDAuMmMtMC4yLTAuNS0wLjctMS0wLjctMS40Yy0wLjEtMC45LDAtMS44LDAuNC0yLjcmIzEwOyYjOTtjMC43LTAuOSwyLTEsMi44LTAuM2MwLDAsMCwwLDAuMSwwLjFjMSwwLjcsMiwxLjMsMywyYzAuMy0wLjcsMC42LTEuMywxLTEuOWMwLjItMC40LDAuOS0wLjgsMS4yLTAuNmMwLjUsMC4yLDAuOCwwLjcsMC45LDEuMiYjMTA7JiM5O2MwLjEsMC45LTAuMywxLjktMC4yLDIuOGMwLjEsMC42LDAuNCwxLjEsMC45LDEuNEM0Ny4yLDI1My4yLDQ3LjcsMjUzLjQsNDguNCwyNTMuNnoiLz4mI3hhOzxwYXRoIGQ9Ik00My4xLDI1MC4xbC0wLjMtMC4yYy0wLjEsMC4zLTAuMywwLjYtMC40LDAuOUw0My4xLDI1MC4xeiIvPiYjeGE7PHBhdGggZD0iTTM0MC40LDMyNS43Yy0xLjEtMC4xLTEuNy0wLjQtMC45LTEuNmMxLjgtMi44LDAuNy01LjEtMi43LTZjMi43LDIuOSwyLjYsMywwLjIsNi4xYy0wLjMsMC42LTAuMywxLjQsMCwyJiMxMDsmIzk7YzAuOCwxLjcsMC42LDMuNC0wLjcsNHMtNC4yLDAtNC44LTEuNGMtMC41LTEuMi0xLjItMS4zLTIuMi0xLjFjLTEuNiwwLjItMy4yLDAtMy45LTEuOWMtMC4yLTAuNC0xLTAuNi0xLjYtMC44cy0xLjMtMC4xLTEuNi0wLjQmIzEwOyYjOTtjLTEuMy0xLjMtMi0wLjUtMi44LDAuNWMxLjgsMC43LDMuOCwxLjIsNS4yLDIuM2MxLDEsMi4yLDEuNiwzLjYsMS43YzAuOCwwLDEuNSwwLjMsMi4xLDAuOGMxLjMsMi4xLDMuMiwyLjEsNS4yLDEuOCYjMTA7JiM5O2MxLjctMC4yLDMtMS41LDMuNC0zLjJjMC4zLTEuMiwwLjktMS40LDItMS40YzIsMCw0LTAuMiw2LjItMC40Yy0wLjEtMC4yLTAuMS0wLjQtMC4yLTAuNkMzNDQuNywzMjYsMzQyLjYsMzI1LjgsMzQwLjQsMzI1Ljd6Ii8+JiN4YTs8cGF0aCBkPSJNMTYxLjYsMzA2LjJjLTAuNywxLjEtMS4yLDEuMS0yLjMsMC41Yy0yLjQtMS4zLTUuMy0xLjUtNy45LTAuN2MtMi4xLDAuNS0zLjcsMi4zLTMuOCw0LjVjLTAuMSwxLjksMC4xLDQsMi43LDQuNSYjMTA7JiM5O2MwLjIsMC4xLDAuNSwwLjgsMC41LDEuMmMtMC4xLDAuNS0wLjIsMS0wLjQsMS41YzAuNS0wLjMsMS0wLjcsMS4zLTEuMWMxLjYtMS42LDEuNi0xLjctMC42LTIuN2MtMS4xLTAuMy0xLjgtMS4zLTEuNy0yLjQmIzEwOyYjOTtjMC4xLTIuNCwxLjYtMy44LDQuNC00LjFjMi44LTAuMyw1LjYsMC42LDcuNywyLjVjMC4zLTMsMS43LTQuNiw0LjMtNS4yYzAuMSwwLDAuMi0wLjMsMC4zLTAuNCYjMTA7JiM5O0MxNjQuMywzMDQuMSwxNjIuNiwzMDQuNSwxNjEuNiwzMDYuMnoiLz4mI3hhOzxwYXRoIGQ9Ik0xNzIuMiwyOTNjMy44LTAuOCw2LjYsMC43LDcuNyw0YzAuNSwxLjcsMC45LDMuNCwxLjMsNS4xYzAuMiwwLjMsMC40LDAuOSwwLjcsMWMxLjUsMC4xLDMsMC41LDQuMy0xJiMxMDsmIzk7YzEuNy0xLjksMy4xLTEuNiw0LjIsMC43YzAuMywwLjcsMC43LDEuMywxLjIsMS45YzEuNCwxLjYsNC4xLDEuNSw1LjEtMC4xYzAuOC0xLjMsMC43LTMuNCwzLjEtMy40Yy0yLjMtMC44LTMuMS0wLjQtMy44LDEuMSYjMTA7JiM5O2MtMC4zLDAuNy0wLjksMS43LTEuNiwxLjljLTEuNCwwLjMtMS45LTAuOS0yLjMtMi4xYy0wLjktMy0zLjItMy43LTUuNi0xLjdjLTAuNywwLjYtMS4yLDEuMy0xLjksMS45Yy0wLjQsMC40LTEsMC42LTEuNiwwLjYmIzEwOyYjOTtjLTAuNC0wLjEtMC42LTAuOS0wLjktMS40Yy0wLjEtMC4zLTAuMi0wLjYtMC4yLTAuOWMtMC4yLTEuMi0wLjQtMi41LTAuNy0zLjdjLTEuMi00LjEtNS42LTYuNS05LjctNS4zYy0wLjQsMC4xLTAuOSwwLjMtMS4zLDAuNSYjMTA7JiM5O2MtNS40LDIuNi02LjYsNS00LjEsMTAuM2MwLjEsMC42LDAuMiwxLjIsMC4xLDEuOGwxLjcsMC45Yy0wLjUtMS44LTAuOC0zLjctMS4xLTUuNUMxNjYuNCwyOTYuMiwxNjguNiwyOTMuNywxNzIuMiwyOTN6Ii8+JiN4YTs8cGF0aCBkPSJNMTY2LjIsMzA0LjJMMTY2LjIsMzA0LjJMMTY2LjIsMzA0LjJMMTY2LjIsMzA0LjJMMTY2LjIsMzA0LjJMMTY2LjIsMzA0LjJ6Ii8+JiN4YTs8cGF0aCBkPSJNMTUwLDI2OC4xYy0wLjQtMC4xLTAuOS0wLjItMS4zLTAuMmMtMC40LDAuMS0wLjcsMC4zLTEsMC41YzAuMiwwLjIsMC40LDAuNiwwLjcsMC43YzAuOSwwLjIsMS45LDAuNCwyLjgsMC4zJiMxMDsmIzk7YzEuOC0wLjMsMy4xLTEuOCwzLjEtMy42Yy0wLjEtMS4xLTAuOS0yLjktMS42LTNjLTIuMy0wLjMtNC43LTEuMy03LDBjLTAuNiwwLjYtMS42LDAuNS0yLjEtMC4xYy0wLjEtMC4xLTAuMi0wLjItMC4yLTAuNCYjMTA7JiM5O2MtMC43LTAuOC0xLjYtMS40LTIuNy0xLjVjLTEuNS0wLjEtMi44LDEtMi45LDIuNWMtMC4xLDEuMSwwLjIsMi4xLDAuOSwzYzAuNywwLjgsMS45LDEuMSwyLjgsMS44YzAuNiwwLjQsMS4xLDAuOSwxLjQsMS42JiMxMDsmIzk7YzAuNiwyLjIsMiwyLjcsNC4yLDFjLTIuNywwLjYtMywwLjMtMi42LTIuMmMwLjItMS0wLjEtMS4zLTEuMS0xLjVjLTEuMS0wLjEtMi4yLTAuNS0zLjItMS4xYy0wLjgtMC41LTEuMy0xLjItMS40LTIuMSYjMTA7JiM5O2MwLjItMC45LDAuOC0xLjYsMS42LTJjMS4xLTAuNiwxLjksMC4zLDIuNCwxLjNzMS40LDEuOCwyLjQsMWMxLjctMS4zLDMuNi0wLjYsNS40LTAuOGMyLTAuMiwyLjksMC43LDIuOCwyLjImIzEwOyYjOTtjMCwxLjUtMS4yLDIuNy0yLjcsMi43QzE1MC4zLDI2OC4yLDE1MC4yLDI2OC4yLDE1MCwyNjguMXoiLz4mI3hhOzxwYXRoIGQ9Ik0yMTcuOCwzMzIuN2MtMC45LTAuNi0xLjktMC43LTIuOS0wLjRjLTAuNywwLjMtMC45LDEuNS0xLjEsMS45YzAuMyw0LDEsNy4xLDQuMiw4LjljMS4yLDAuNiwyLjcsMC43LDQsMC4zJiMxMDsmIzk7YzEuNS0wLjcsMS4yLTIuNSwwLjgtMy45QzIyMS45LDMzNi43LDIyMC4yLDMzNC4zLDIxNy44LDMzMi43eiBNMjIxLjQsMzQxLjljLTAuNCwwLjMtMS4zLDAuMS0xLjktMC4yYy0yLjUtMS4yLTQuNC01LjItNC04LjMmIzEwOyYjOTtjMi0wLjMsMi45LDEuMSwzLjcsMi4zYzEsMS40LDEuOCwyLjgsMi41LDQuNEMyMjIsMzQwLjcsMjIxLjksMzQxLjUsMjIxLjQsMzQxLjlMMjIxLjQsMzQxLjl6Ii8+JiN4YTs8cGF0aCBkPSJNMjIyLjcsMjY0LjdjMS40LDAuNCwzLDAuNiw0LjQsMS4xYzEuMywwLjYsMi45LDAsMy41LTEuM2MwLDAsMCwwLDAtMC4xYzAuOC0xLjQsMC4yLTIuNC0wLjktMy4zYy0wLjQtMC40LTAuOS0wLjctMS40LTAuOSYjMTA7JiM5O2MtMS41LTAuOS0yLjktMS43LTMuNy0yLjFjLTIuOCwwLjEtNC4yLDEuNS00LjUsMy42UzIyMS4yLDI2NC4yLDIyMi43LDI2NC43eiBNMjIxLjksMjYxLjJjMC4xLTEuNCwwLjktMi4xLDIuNy0yLjImIzEwOyYjOTtjMC40LDAuMSwwLjcsMC4zLDEsMC41YzEuMSwwLjgsMi4xLDEuNiwzLDIuNWMwLjMsMC41LDAuNiwxLjEsMC43LDEuN2MtMC43LDAuMS0xLjMsMC4yLTIsMC4yYy0xLjEtMC4yLTIuMy0wLjYtMy40LTAuOCYjMTA7JiM5O1MyMjEuNywyNjIuNywyMjEuOSwyNjEuMkwyMjEuOSwyNjEuMnoiLz4mI3hhOzxwYXRoIGQ9Ik0yOTEuMiwzMDkuOWMxLjMtMC44LDIuOS0xLDQuNC0xLjVjLTAuMi0wLjEtMC40LTAuMi0wLjYtMC4yYy0zLjctMS4yLTUuNywwLTYuNiwzLjhjLTAuMSwwLjQtMC45LDAuOC0xLjQsMSYjMTA7JiM5O2MtMS41LDAuMy0yLjksMC43LTQuMywxLjNjLTIuMiwxLjEtMi45LDIuNy0yLjIsNC40YzAuOCwyLjEsMi44LDMuMyw1LjQsMi45Yy0xLTAuNy0xLjktMS4yLTIuNy0xLjhjLTEuOS0xLjQtMS45LTMsMC00LjQmIzEwOyYjOTtjMi4zLTEuNiw1LjMtMiw4LTEuMUMyOTEuMywzMTIuOCwyODkuNSwzMTEsMjkxLjIsMzA5Ljl6Ii8+JiN4YTs8cGF0aCBkPSJNMzM5LjQsMTUzLjNjLTEuNSwwLjktMy4zLDEuNy00LjgsMC41Yy0xLjgtMS41LTMuNS0zLjItNC44LTUuMmMtMC45LTEuMy0xLTMtMS41LTQuNmMtMC45LDYuMSwyLjIsMTAuMSw2LjgsMTIuMSYjMTA7JiM5O2MxLjEsMC4zLDIuMiwwLjEsMy4yLTAuNGMxLjYtMC44LDMuMi0xLjcsNC43LTIuN0MzNDEuOCwxNTIuMSwzNDAuNSwxNTIuNiwzMzkuNCwxNTMuM3oiLz4mI3hhOzxwYXRoIGQ9Ik0zNzcuNCwzMDkuNWwwLjMtMC41YzAuNCwwLDAuOSwwLjEsMS4xLDBjMS0wLjYsMi4zLTEuMiwyLjgtMi4yYzAuNS0xLjEtMC40LTItMS43LTIuNWMtMC40LTAuMi0wLjUtMS0wLjktMS41JiMxMDsmIzk7cy0wLjktMS40LTEuNC0xLjVzLTEuMywwLjQtMS45LDAuOHMtMC45LDAuNy0xLjMsMWMtMS43LDEtMi4yLDIuNC0wLjksMy45QzM3NC43LDMwNy45LDM3NiwzMDguOCwzNzcuNCwzMDkuNXogTTM3NS45LDMwMy45JiMxMDsmIzk7YzAuMy0wLjEsMC41LTAuNCwwLjctMC42czAuNy0wLjcsMS0xLjFjMC40LDAuNSwwLjcsMSwxLDEuNWMwLjIsMC40LDAuMiwxLDAuNSwxLjRjMC40LDAuNSwwLjcsMC45LDEuMiwxLjRsLTEuOCwxJiMxMDsmIzk7Yy0xLTAuMy0xLjktMC44LTIuOC0xLjNDMzc0LjksMzA1LjUsMzc0LjEsMzA0LjUsMzc1LjksMzAzLjl6Ii8+JiN4YTs8cGF0aCBkPSJNMzQ2LjcsMTcyLjJjLTAuOS0xLjUtMi0yLjgtMy4zLTQuNmwyLjQsMC4xdi0wLjJsLTUuNy0yLjRsLTAuMiwwLjRsNy4yLDguNWwtMSwwLjNjLTAuMiwwLjgtMC4zLDEuNi0wLjMsMi41JiMxMDsmIzk7YzAuNSwyLDEuMSw0LDEuOCw2YzAuMiwwLjYsMC41LDEuMiwwLjgsMS43bDAuNy0wLjJsLTIuMS03LjhsMi40LDAuN0MzNDguMywxNzUuMiwzNDcuNiwxNzMuNiwzNDYuNywxNzIuMnoiLz4mI3hhOzxwYXRoIGQ9Ik0yNi43LDI4OS4yYzAuMywwLjMsMC43LDAuNSwxLjEsMC41YzEtMC4xLDEuOS0wLjIsMi45LTAuNWMtMC41LTAuMS0wLjktMC4zLTEuMy0wLjVjLTEuMy0wLjgtMi41LTEuNy0zLjYtMi44JiMxMDsmIzk7Yy0wLjMtMC40LDAuMy0xLjYsMC41LTIuNGMwLjYtMi4xLDAtNC4zLTEuNy01LjdjLTEuOS0xLjgtNC4xLTIuOS02LjgtMS45YzIuNi0wLjEsNS4xLDEuMiw2LjUsMy4zYzEuNiwyLDEuNCw0LjgtMC40LDYuNiYjMTA7JiM5O0MyNSwyODcuMiwyNS44LDI4OC4zLDI2LjcsMjg5LjJ6Ii8+JiN4YTs8cGF0aCBkPSJNMzUwLjgsMzEyLjVjLTEuOCwwLTMuMywxLjItMy45LDIuOGMtMC4yLDAuNS0wLjEsMS4xLDAuMSwxLjdjMC42LDEuNCwxLjMsMi44LDIsNC4yYzAuNC0wLjQsMS4xLTEsMS44LTEuNiYjMTA7JiM5O2MwLjItMC4yLDAuMy0wLjUsMC41LTAuN2MtMC41LTAuNC0wLjktMC44LTEuMy0xLjFjLTEuNS0xLjItMS41LTIuNiwwLjItMy42YzAuOS0wLjUsMS45LTAuNywyLjktMC44YzAuOS0wLjEsMS44LDAsMi43LDAuMSYjMTA7JiM5O0MzNTQuNSwzMTEuNiwzNTIuNSwzMTIuMywzNTAuOCwzMTIuNXoiLz4mI3hhOzxwYXRoIGQ9Ik0zNTUuOSwzMTMuNUwzNTUuOSwzMTMuNUwzNTUuOSwzMTMuNUwzNTUuOSwzMTMuNXoiLz4mI3hhOzxwYXRoIGQ9Ik0zNDYuOCwxNTMuN2wtNi4xLDIuNmwwLjEsMC42bDMuNy0wLjNjMCwwLjUsMCwwLjksMC4xLDEuNEMzNDYuOSwxNTcuMSwzNDcuNCwxNTYuMSwzNDYuOCwxNTMuN3oiLz4mI3hhOzxwYXRoIGQ9Ik0xMDYuNiwyNzYuMmMyLjUtMC43LDUuMywwLDcuMiwxLjhjMi43LDIuNCwzLjMsOC43LTAuOSwxMWMtMC44LDAuNC0xLjcsMS4yLTEuOCwxLjljLTAuMSwxLjQsMCwyLjcsMC4yLDQmIzEwOyYjOTtjMS4yLTEuMywyLjgtMi4yLDQuNi0xLjRjMC45LDAuNCwxLjUsMS4yLDEuOSwyLjFjMCwwLjgtMC4zLDEuNy0wLjksMi4yYy0wLjMsMC4zLTEuMy0wLjEtMi0wLjNjLTEuMS0wLjQtMi4yLTAuNy0zLjMtMC45JiMxMDsmIzk7Yy01LTAuMy04LjQsNC4yLTcuMyw5LjRjMC4xLDAuNi0wLjIsMS45LTAuNCwyYy0xLjEsMC4yLTIuMiwxLjYtMy4zLTAuMWMtMi4xLTMuNC01LjQtNC4zLTkuMi00LjJjLTQuMiwwLjEtOC43LDUuMi01LjksOS40JiMxMDsmIzk7YzAuNiwwLjgsMS4yLDEuNSwxLjgsMi4yYy0zLjIsMi4zLTMuOCw0LjMtMiw2LjFjMC00LjIsMC43LTUuMiw0LjctNi4xYy0wLjMtMC40LTAuNi0wLjgtMC45LTEuMmMtMi0xLjMtMi45LTIuOC0yLjUtNC43JiMxMDsmIzk7YzAuNC0yLjEsMi4xLTMuOCw0LjMtNGMyLjctMC40LDUuNSwwLjUsNy42LDIuNGMwLjksMSwxLjgsMiwyLjYsM2MxLjMtMS41LDIuNy0yLjYsNS0xLjhjLTEuNC0zLjUtMS45LTYuOSwwLjgtOS42JiMxMDsmIzk7YzMuMy0zLjMsNi45LTEuNiwxMC41LDAuNWMwLjgtMi41LDItNC4yLDQuOS0zLjNjMC40LTMuMiwxLjUtNCwzLjUtMi42YzEuNywxLjIsMS44LDEuMSwyLTAuOWMwLjQtMi4zLDIuMy00LDQuNy00LjImIzEwOyYjOTtjMiwwLDMuNywxLjcsMy45LDQuMWMwLDEuMywwLjIsMi43LDAuNCw0YzAuMywxLjIsMSwyLjMsMS45LDMuMWMwLjksMC40LDIsMC41LDMsMC4yYzAuMy0wLjEsMC4zLTEuNSwwLjQtMi4zJiMxMDsmIzk7YzAuMS0wLjYsMC4xLTEuNiwwLjUtMS44YzEuOC0wLjgsMS42LTIsMS4xLTMuNGMtMC4yLTAuNS0wLjItMS4xLTAuMS0xLjdjMC4xLTAuNSwwLjMtMS4yLDAuNi0xLjJjMC41LTAuMSwxLjEsMC4xLDEuNSwwLjUmIzEwOyYjOTtjMC41LDAuNSwwLjgsMS4zLDEuMywxLjhjMC40LDAuMywwLjksMC41LDEuNCwwLjZjMC4xLTAuNSwwLjUtMSwwLjQtMS40Yy0wLjctMy42LDEuNy03LjIsNS4zLTcuOWMxLjItMC4yLDIuNC0wLjEsMy41LDAuMyYjMTA7JiM5O2MwLjcsMC4yLDEuNSwwLjQsMi4yLDAuNWMtMS42LTQuNS0xLjUtNiwwLjYtNy40YzEuOS0xLjQsNC41LTEuMyw2LjMsMC4yYzIuMSwxLjksMiwzLjUtMC4xLDcuMmMxLjQsMS40LDIuNywyLjYsMy45LDQmIzEwOyYjOTtjMSwxLjIsMS40LDEuMSwxLjktMC4zYy0wLjktMS4xLTEuOS0yLjEtMi45LTNjLTAuNy0wLjQtMS0xLjQtMC42LTIuMWMwLDAsMC0wLjEsMC4xLTAuMWMwLjktMS41LDEtMy40LDAuMS00LjkmIzEwOyYjOTtjLTEuMy0yLjYtNC4zLTMuOS03LjEtMy4xYy0yLjksMC42LTUsMy4yLTQuOCw2LjJjMCwxLjMtMC40LDEuNS0xLjUsMS41Yy0zLjUsMC02LjYsMi4yLTcuNyw1LjRjLTAuNCwxLjEtMC42LDEuNS0xLjgsMC44JiMxMDsmIzk7Yy0xLjYtMS0zLjEtMC40LTMuNiwxLjRjLTAuMywxLjEsMC4yLDIuMywwLjEsMy41YzAsMC43LTAuMSwxLjktMC40LDJjLTEuMSwwLjMtMS44LDEuNS0xLjUsMi43YzAsMC40LTAuMSwxLjItMC40LDEuMyYjMTA7JiM5O2MtMC41LDAuMS0xLDAtMS40LTAuM2MtMC41LTAuNi0wLjktMS40LTEuMi0yLjJjLTAuMS0wLjgtMC4xLTEuNiwwLjEtMi41YzAuMi0zLjEtMS44LTUuOS00LjktNi42Yy0yLTAuNS01LjQsMS4zLTYuNSwzLjgmIzEwOyYjOTtjLTAuNSwxLTAuOSwxLjMtMiwxYy0xLjMtMC4zLTIuNiwwLjUtMi45LDEuOWMwLDAuMS0wLjEsMC4zLTAuMSwwLjRjLTAuMSwwLjUtMC41LDEuMy0wLjcsMS4zYy0wLjctMC4xLTEuNi0wLjMtMS45LTAuOCYjMTA7JiM5O2MtMS43LTIuNy0yLjItMi45LTUuMi0yLjVjLTAuNCwwLjEtMS4zLTAuMi0xLjQtMC41Yy0wLjItMC42LTAuMi0xLjMsMC4xLTEuOWMwLjItMC40LDAuOS0wLjcsMS4zLTFjMy41LTIuNiw0LjEtNy4yLDEuOC0xMS4yJiMxMDsmIzk7Yy0xLjgtMy4xLTcuMS00LjItMTAuMS0yLjRjLTAuNSwwLjQtMSwwLjgtMS42LDEuMWMtMC40LDAuMi0wLjcsMC4zLTEuMSwwLjRsLTAuNSwwLjFjMC4xLDAuNiwwLjEsMS4yLDAuMiwxLjhMMTA2LjYsMjc2LjJ6Ii8+JiN4YTs8L3N2Zz4=;" vertex="1" parent="1">
          <mxGeometry x="210" y="285" width="295.93" height="230" as="geometry" />
        </mxCell>
        <mxCell id="nBNxJdVC5k_DGyjdFlCN-2" value="&lt;b&gt;while&amp;nbsp;&lt;/b&gt;(!falaise) { courir(); }" style="text;strokeColor=none;align=center;fillColor=none;html=1;verticalAlign=middle;whiteSpace=wrap;rounded=0;" vertex="1" parent="1">
          <mxGeometry x="180" y="265" width="150" height="30" as="geometry" />
        </mxCell>
        <mxCell id="nBNxJdVC5k_DGyjdFlCN-3" value="&lt;b&gt;do&lt;/b&gt; { courir(); } &lt;b&gt;while &lt;/b&gt;(!falaise);" style="text;strokeColor=none;align=center;fillColor=none;html=1;verticalAlign=middle;whiteSpace=wrap;rounded=0;" vertex="1" parent="1">
          <mxGeometry x="350" y="265" width="170" height="30" as="geometry" />
        </mxCell>
      </root>
    </mxGraphModel>
  </diagram>
</mxfile>
